<?xml version="1.0" encoding="iso-8859-1"?>
<!-- Generator: Adobe Illustrator 19.0.0, SVG Export Plug-In . SVG Version: 6.00 Build 0)  -->
<svg version="1.1" id="Capa_1" xmlns="http://www.w3.org/2000/svg" xmlns:xlink="http://www.w3.org/1999/xlink" x="0px" y="0px"
	 viewBox="0 0 512 512" style="enable-background:new 0 0 512 512;" xml:space="preserve">
<path style="fill:#FDBF00;" d="M310.331,150.691v210.622c-23.701,19.201-53.704,29.703-84.308,29.703
	c-74.406,0-135.013-60.607-135.013-135.013c0-74.408,60.607-135.013,135.013-135.013C256.627,120.989,286.63,131.49,310.331,150.691
	z"/>
<path style="fill:#FF9F00;" d="M310.331,150.691v210.622c-23.701,19.201-53.704,29.703-84.308,29.703V120.99
	C256.627,120.989,286.63,131.49,310.331,150.691z"/>
<path style="fill:#5A5A5A;" d="M280.564,351.475c-52.651-52.637-52.651-138.31,0-190.947c52.651-52.651,138.295-52.651,190.947,0
	c53.985,53.97,53.985,136.977,0,190.947C418.88,404.107,333.217,404.129,280.564,351.475z"/>
<g>
	<rect x="211.021" y="30.98" style="fill:#FF9F00;" width="30.003" height="60.006"/>
	<rect x="211.021" y="421.014" style="fill:#FF9F00;" width="30.003" height="60.006"/>
	
		<rect x="58.126" y="103.103" transform="matrix(-0.7071 -0.7071 0.7071 -0.7071 66.9288 263.9291)" style="fill:#FF9F00;" width="59.999" height="30"/>
	
		<rect x="73.131" y="363.897" transform="matrix(-0.7071 -0.7071 0.7071 -0.7071 -128.0777 734.7416)" style="fill:#FF9F00;" width="30" height="59.999"/>
	<rect y="240.997" style="fill:#FF9F00;" width="61.006" height="30.003"/>
</g>
<path style="fill:#292929;" d="M374.221,272.821c-17.551-17.551-17.551-46.089,0-63.639s46.089-17.551,63.639,0
	c17.551,17.551,17.551,46.089,0,63.639C420.327,290.353,391.771,290.371,374.221,272.821z"/>
<g>
	<rect x="226.023" y="30.98" style="fill:#FF7816;" width="15.001" height="60.006"/>
	<rect x="226.023" y="421.014" style="fill:#FF7816;" width="15.001" height="60.006"/>
</g>
<g>
</g>
<g>
</g>
<g>
</g>
<g>
</g>
<g>
</g>
<g>
</g>
<g>
</g>
<g>
</g>
<g>
</g>
<g>
</g>
<g>
</g>
<g>
</g>
<g>
</g>
<g>
</g>
<g>
</g>
</svg>
