<?xml version="1.0" encoding="iso-8859-1"?>
<!-- Generator: Adobe Illustrator 19.0.0, SVG Export Plug-In . SVG Version: 6.00 Build 0)  -->
<svg version="1.1" id="Capa_1" xmlns="http://www.w3.org/2000/svg" xmlns:xlink="http://www.w3.org/1999/xlink" x="0px" y="0px"
	 viewBox="0 0 511.999 511.999" style="enable-background:new 0 0 511.999 511.999;" xml:space="preserve">
<g>
	<g>
		<path d="M504.994,265.731c-4.146-0.279-7.717,2.851-7.995,6.988c-2.75,40.955-15.851,79.193-36.69,112.105l-53.664-30.983
			c0.108-1.186,0.072,9.629,0.072-187.06c0-5.565-2.994-10.75-7.813-13.533L264.105,75.424c-0.1-0.058-0.203-0.107-0.304-0.162
			V15.168c122.567,3.816,224.269,100.626,233.123,223.553c0.297,4.136,3.899,7.246,8.029,6.95c4.137-0.297,7.249-3.893,6.95-8.029
			C502.285,104.109,390.885,0.019,256.291,0.019C114.638,0.019,0,114.646,0,256.311C0,391.305,104.585,502.66,238.25,511.962
			c0.177,0.012,0.353,0.019,0.529,0.019c3.91,0,7.208-3.029,7.483-6.988c0.288-4.137-2.832-7.724-6.969-8.012
			c-73.615-5.123-137.882-43.479-178.531-99.712l53.564-30.925l134.153,77.453c2.41,1.391,5.111,2.086,7.813,2.086
			c2.701,0,5.403-0.696,7.813-2.086l134.153-77.453l53.599,30.945c-40.79,56.365-105.287,94.592-178.566,99.692
			c-4.137,0.288-7.258,3.876-6.969,8.012c0.275,3.96,3.573,6.988,7.483,6.988c0.175,0,0.352-0.006,0.529-0.019
			c127.478-8.871,229.101-110.941,237.649-238.235C512.26,269.589,509.132,266.01,504.994,265.731z M113.679,153.249
			c-4.819,2.783-7.812,7.969-7.812,13.533v1.165c0,198.165-0.039,184.673,0.072,185.895l-53.623,30.959
			C-47.293,227.342,63.073,20.873,248.782,15.165v60.097c-0.101,0.055-0.204,0.105-0.304,0.162l-1.007,0.582
			c-0.001,0-0.002,0.001-0.003,0.001C243.662,78.204,117.699,150.929,113.679,153.249z M248.782,426.631
			c-3.996-2.309-117.444-67.808-126.584-73.085c-0.81-0.468-1.314-1.34-1.314-2.275V181.353
			c134.506,77.657,126.73,73.221,127.897,73.769V426.631z M254.977,241.43l-131.995-76.208
			c2.742-1.583,129.892-74.993,130.931-75.593c0.748,0.25,1.547,0.391,2.379,0.391s1.631-0.141,2.379-0.391l130.931,75.593
			L257.604,241.43C256.863,241.858,255.797,241.903,254.977,241.43z M391.698,352.168c-0.287,0.326-0.547,0.687-0.78,1.071
			L263.8,426.63V255.114c1.113-0.524-6.489,3.827,127.897-73.76V352.168z"/>
	</g>
</g>
<g>
</g>
<g>
</g>
<g>
</g>
<g>
</g>
<g>
</g>
<g>
</g>
<g>
</g>
<g>
</g>
<g>
</g>
<g>
</g>
<g>
</g>
<g>
</g>
<g>
</g>
<g>
</g>
<g>
</g>
</svg>
