<svg height="512pt" viewBox="0 -81 512 511" width="512pt" xmlns="http://www.w3.org/2000/svg"><path d="m0 23.992188h511v324.675781h-511zm0 0" fill="#ac2ca5"/><g fill="#85d3fd"><path d="m299.203125 74.164062h97v29.941407h-97zm0 0"/><path d="m299.203125 134.050781h97v29.941407h-97zm0 0"/><path d="m299.203125 193.9375h97v29.941406h-97zm0 0"/></g><path d="m255.5 23.992188h256.5v324.675781h-256.5zm0 0" fill="#891e82"/><path d="m294.09375.5c-14.621094 0-28.167969 5.832031-38.136719 16.425781-.132812.140625-.253906.285157-.382812.425781-.128907-.140624-.25-.289062-.382813-.425781-9.972656-10.59375-23.515625-16.425781-38.140625-16.425781h-162.179687v294.957031h147.492187c21.085938 0 38.238281 17.15625 38.238281 38.238281h29.941407c0-21.082031 17.15625-38.238281 38.238281-38.238281h147.496094v-294.957031zm0 0" fill="#22b8f9"/><path d="m294.09375.5c-14.621094 0-28.167969 5.832031-38.136719 16.425781-.132812.140625-.253906.285157-.382812.425781v316.34375h14.96875c0-21.082031 17.15625-38.238281 38.238281-38.238281h147.496094v-294.957031zm0 0" fill="#1272fb"/><path d="m113.453125 74.164062h97.003906v29.941407h-97.003906zm0 0" fill="#85d3fd"/><path d="m113.453125 134.050781h97.003906v29.941407h-97.003906zm0 0" fill="#85d3fd"/><path d="m113.453125 193.9375h97.003906v29.941406h-97.003906zm0 0" fill="#85d3fd"/><path d="m299.203125 74.164062h97v29.941407h-97zm0 0" fill="#22b8f9"/><path d="m299.203125 134.050781h97v29.941407h-97zm0 0" fill="#22b8f9"/><path d="m299.203125 193.9375h97v29.941406h-97zm0 0" fill="#22b8f9"/></svg>