<?xml version="1.0" encoding="iso-8859-1"?>
<!-- Generator: Adobe Illustrator 21.0.0, SVG Export Plug-In . SVG Version: 6.00 Build 0)  -->
<svg xmlns="http://www.w3.org/2000/svg" xmlns:xlink="http://www.w3.org/1999/xlink" version="1.1" id="Capa_1" x="0px" y="0px" viewBox="0 0 512 512" style="enable-background:new 0 0 512 512;" xml:space="preserve" width="512" height="512">
<g>
	<path style="fill:#C46F5F;" d="M131.42,502.036c-1.742,4.843,1.803,9.964,6.897,9.964h33.297c3.085,0,5.841-1.952,6.897-4.885   L219.47,393.28h-48.918L131.42,502.036z"/>
	<path style="fill:#C46F5F;" d="M380.58,502.036L341.448,393.28H292.53l40.959,113.835c1.055,2.933,3.811,4.885,6.897,4.885h33.297   C378.777,512,382.322,506.879,380.58,502.036z"/>
	<path style="fill:#B45F4A;" d="M162.327,502.036l39.132-108.756h-30.907L131.42,502.036c-1.742,4.843,1.803,9.964,6.897,9.964   h30.907C164.13,512,160.585,506.879,162.327,502.036z"/>
	<path style="fill:#B45F4A;" d="M364.397,507.115L323.437,393.28H292.53l40.959,113.835c1.055,2.933,3.811,4.885,6.897,4.885h30.907   C368.208,512,365.452,510.048,364.397,507.115z"/>
	<path style="fill:#576574;" d="M134.245,364.656v16.368c0,7.487,6.126,13.612,13.612,13.612h216.286   c7.487,0,13.612-6.125,13.612-13.612v-16.368H134.245z"/>
	<path style="fill:#3E4B5A;" d="M165.152,381.024v-16.368h-30.907v16.368c0,7.487,6.126,13.612,13.613,13.612h30.907   C171.277,394.636,165.152,388.511,165.152,381.024z"/>
	<rect x="46.49" y="41.709" style="fill:#E4EAF8;" width="419.02" height="284.863"/>
	<rect x="46.49" y="41.709" style="fill:#CCD2DB;" width="30.907" height="284.863"/>
	<path style="fill:#3E4B5A;" d="M470.271,0H41.729c-6.525,0-11.863,5.338-11.863,11.863v22.241c0,6.525,5.338,11.863,11.863,11.863   h428.542c6.525,0,11.863-5.338,11.863-11.863V11.863C482.134,5.338,476.796,0,470.271,0z"/>
	<path style="fill:#303F49;" d="M470.271,15.576H41.729c-5.093,0-9.45-3.258-11.123-7.788c-0.471,1.274-0.741,2.643-0.741,4.075   v22.241c0,6.525,5.338,11.863,11.863,11.863h428.542c6.525,0,11.863-5.338,11.863-11.863V11.863c0-1.432-0.27-2.801-0.741-4.075   C479.72,12.318,475.363,15.576,470.271,15.576z"/>
	<path style="fill:#3E4B5A;" d="M470.271,321.778H41.729c-6.525,0-11.863,5.338-11.863,11.863v22.241   c0,6.525,5.338,11.863,11.863,11.863h428.542c6.525,0,11.863-5.338,11.863-11.863v-22.241   C482.134,327.117,476.796,321.778,470.271,321.778z"/>
	<path style="fill:#303F49;" d="M470.271,337.354H41.729c-5.093,0-9.45-3.258-11.123-7.788c-0.471,1.274-0.741,2.643-0.741,4.076   v22.241c0,6.525,5.338,11.863,11.863,11.863h428.542c6.525,0,11.863-5.339,11.863-11.863v-22.241c0-1.432-0.27-2.801-0.741-4.076   C479.72,334.096,475.363,337.354,470.271,337.354z"/>
	<polygon style="fill:#FECA57;" points="120.62,250.544 120.62,289.654 151.665,289.654 151.665,224.505  "/>
	<g>
		<polygon style="fill:#F4B537;" points="120.62,250.544 120.62,289.654 141.225,289.654 141.225,233.262   "/>
	</g>
	<polygon style="fill:#FECA57;" points="222.713,164.913 192.159,190.54 192.159,289.654 223.204,289.654 223.204,165.215  "/>
	<g>
		<polygon style="fill:#F4B537;" points="192.159,190.54 192.159,289.654 212.764,289.654 212.764,173.258   "/>
	</g>
	<polygon style="fill:#FECA57;" points="333.887,158.105 333.887,289.654 364.932,289.654 364.932,119.135  "/>
	<g>
		<polygon style="fill:#F4B537;" points="333.887,158.105 333.887,289.654 354.491,289.654 354.491,132.24   "/>
	</g>
	<polygon style="fill:#FECA57;" points="262.348,189.337 262.348,289.654 293.393,289.654 293.393,208.468  "/>
	<polygon style="fill:#F4B537;" points="262.348,189.337 262.348,289.654 282.953,289.654 282.953,202.034  "/>
	<path style="fill:#CCD2DB;" d="M382.479,281.927H101.723c-4.267,0-7.727,3.459-7.727,7.727c0,4.267,3.459,7.727,7.727,7.727   h280.756c4.267,0,7.727-3.459,7.727-7.727C390.206,285.386,386.746,281.927,382.479,281.927z"/>
	<path style="fill:#FF6B6B;" d="M111.542,265.888c1.752,0,3.514-0.593,4.962-1.807l106.902-89.665L289.59,215.2   c3.327,2.05,7.661,1.293,10.097-1.764l82.524-103.59c2.659-3.338,2.109-8.199-1.229-10.858c-3.338-2.659-8.199-2.108-10.858,1.229   l-78.256,98.234l-65.101-40.117c-2.835-1.747-6.469-1.481-9.019,0.658l-111.174,93.248c-3.269,2.742-3.697,7.616-0.954,10.885   C107.147,264.949,109.336,265.888,111.542,265.888z"/>
	<path style="fill:#FF6B6B;" d="M396.735,120.609l4.456-45.278c0.206-2.092-2.292-3.98-4.249-3.212l-42.345,16.639   c-1.765,0.694-1.764,3.08,0.002,4.415l37.89,28.639C394.253,123.147,396.549,122.497,396.735,120.609z"/>
	<path style="fill:#EE5253;" d="M385.219,93.173c-1.766-1.335-1.767-3.721-0.002-4.415l15.241-5.989l0.732-7.438   c0.206-2.092-2.292-3.98-4.249-3.212l-42.345,16.639c-1.765,0.693-1.764,3.08,0.002,4.415l37.89,28.639   c1.766,1.335,4.062,0.685,4.248-1.203l1.716-17.435L385.219,93.173z"/>
</g>















</svg>
