<svg viewBox="0 -31 512 512" xmlns="http://www.w3.org/2000/svg"><path d="m0 0h512v450.5h-512zm0 0" fill="#ffdb2d"/><path d="m256.25 0h255.75v450.5h-255.75zm0 0" fill="#ffb62d"/><path d="m61 121h390v270h-390zm0 0" fill="#e6f1fb"/><path d="m256.25 121h194.75v270h-194.75zm0 0" fill="#cde4f8"/><path d="m196 55h255v30h-255zm0 0" fill="#6fc8f1"/><path d="m256.25 55h194.75v30h-194.75zm0 0" fill="#1594cf"/><path d="m61 55h30v30h-30zm0 0" fill="#6fc8f1"/><path d="m121 55h30v30h-30zm0 0" fill="#6fc8f1"/><path d="m212.625 308.679688 60.5-118.496094 26.71875 13.640625-60.5 118.496093zm0 0" fill="#ff4f19"/><path d="m299.859375 203.820312-43.609375 85.417969v-65.976562l16.890625-33.082031zm0 0" fill="#d43200"/><path d="m186.382812 331.214844c-19.242187 0-35.003906-15.65625-35.140624-34.898438l-.070313-10.480468c-.015625-2.277344-.910156-4.417969-2.523437-6.023438l-23.933594-23.925781 23.800781-23.285157c1.644531-1.609374 2.585937-3.851562 2.585937-6.152343v-10.097657c0-19.375 15.765626-35.136718 35.140626-35.136718h.140624v30h-.140624c-2.832032 0-5.140626 2.304687-5.140626 5.136718v10.097657c0 10.324219-4.230468 20.382812-11.609374 27.597656l-2.113282 2.070313 2.476563 2.476562c7.226562 7.21875 11.242187 16.820312 11.316406 27.035156l.070313 10.480469c.019531 2.816406 2.324218 5.105469 5.140624 5.105469zm0 0" fill="#ff4f19"/><path d="m325.757812 331.214844h-.140624v-30h.140624c2.832032 0 5.136719-2.308594 5.136719-5.140625v-10.097657c0-10.320312 4.234375-20.378906 11.609375-27.597656l2.113282-2.070312-2.476563-2.472656c-7.222656-7.222657-11.242187-16.824219-11.3125-27.039063l-.070313-10.480469c-.023437-2.8125-2.328124-5.105468-5.140624-5.105468v-30c19.242187 0 35.003906 15.65625 35.136718 34.898437l.074219 10.480469c.015625 2.277344.910156 4.417968 2.523437 6.027344l23.933594 23.921874-23.800781 23.285157c-1.644531 1.605469-2.589844 3.851562-2.589844 6.152343v10.097657c0 19.375-15.761719 35.140625-35.136719 35.140625zm0 0" fill="#d43200"/></svg>