<?xml version="1.0" ?><svg enable-background="new 0 0 64 64" height="64px" version="1.1" viewBox="0 0 64 64" width="64px" xml:space="preserve" xmlns="http://www.w3.org/2000/svg" xmlns:xlink="http://www.w3.org/1999/xlink"><g id="Layer_1"><g><circle cx="32" cy="32" fill="#77B3D4" r="32"/></g><g opacity="0.2"><path d="M48,32c0-8.837-7.163-16-16-16c-7.498,0-13.773,5.165-15.508,12.126C11.687,28.854,8,32.991,8,38    c0,5.523,4.477,10,10,10h30c4.418,0,8-3.582,8-8S52.418,32,48,32z" fill="#231F20"/></g><g><path d="M48,30c0-8.837-7.163-16-16-16c-7.498,0-13.773,5.165-15.508,12.126C11.687,26.854,8,30.991,8,36    c0,5.523,4.477,10,10,10h30c4.418,0,8-3.582,8-8S52.418,30,48,30z" fill="#FFFFFF"/></g></g><g id="Layer_2"/></svg>