<?xml version="1.0" encoding="iso-8859-1"?>
<!-- Generator: Adobe Illustrator 19.0.0, SVG Export Plug-In . SVG Version: 6.00 Build 0)  -->
<svg version="1.1" id="Capa_1" xmlns="http://www.w3.org/2000/svg" xmlns:xlink="http://www.w3.org/1999/xlink" x="0px" y="0px"
	 viewBox="0 0 512 512" style="enable-background:new 0 0 512 512;" xml:space="preserve">
<g>
	<g>
		<path d="M498.112,352.689l-77.223-37.278l77.223-37.279c18.518-8.94,18.515-35.326,0.001-44.261l-77.222-37.28l77.222-37.279
			c18.519-8.94,18.509-35.327,0-44.26L383.528,59.734c-3.718-1.796-8.186-0.235-9.981,3.481c-1.794,3.717-0.235,8.186,3.482,9.981
			l114.586,55.317c7.267,3.509,7.275,13.824,0,17.337c-8.943,4.317-222.13,107.232-231.43,111.723c-2.66,1.282-5.71,1.282-8.369,0
			c-7.277-3.513-226.515-109.349-231.43-111.723c-7.268-3.509-7.276-13.824,0-17.337L251.815,16.791
			c2.659-1.285,5.71-1.284,8.37-0.001l85.395,41.225c3.718,1.796,8.186,0.234,9.981-3.481c1.795-3.717,0.236-8.186-3.481-9.981
			L266.683,3.327c-6.789-3.276-14.576-3.277-21.366,0.001L13.887,115.051c-18.52,8.939-18.51,35.326,0,44.26l77.222,37.279
			l-77.222,37.28c-18.522,8.939-18.509,35.326,0,44.26L91.11,315.41l-77.223,37.278c-18.521,8.942-18.507,35.327,0,44.261
			l231.431,111.724c6.785,3.274,14.576,3.277,21.366-0.001l93.769-45.267c3.717-1.795,5.276-6.263,3.481-9.981
			c-1.794-3.717-6.263-5.279-9.981-3.481l-93.768,45.266c-2.66,1.285-5.712,1.284-8.37,0.001L20.384,383.488
			c-7.268-3.509-7.276-13.824,0-17.337l87.917-42.441l137.015,66.143c6.79,3.278,14.578,3.279,21.367,0l137.015-66.143l87.916,42.44
			c7.268,3.508,7.277,13.824,0,17.337l-106.211,51.272c-3.717,1.795-5.276,6.263-3.482,9.981c1.795,3.717,6.263,5.279,9.981,3.481
			l106.211-51.272C516.633,388.01,516.62,361.624,498.112,352.689z M260.184,376.391c-2.66,1.283-5.71,1.283-8.369,0L20.385,264.669
			c-7.268-3.509-7.277-13.824,0-17.337l87.916-42.443l137.016,66.144c6.79,3.279,14.578,3.279,21.367,0L403.7,204.889l87.916,42.443
			c7.267,3.509,7.276,13.824-0.001,17.337L260.184,376.391z"/>
	</g>
</g>
<g>
</g>
<g>
</g>
<g>
</g>
<g>
</g>
<g>
</g>
<g>
</g>
<g>
</g>
<g>
</g>
<g>
</g>
<g>
</g>
<g>
</g>
<g>
</g>
<g>
</g>
<g>
</g>
<g>
</g>
</svg>
