<?xml version="1.0" encoding="iso-8859-1"?>
<!-- Generator: Adobe Illustrator 19.0.0, SVG Export Plug-In . SVG Version: 6.00 Build 0)  -->
<svg version="1.1" id="Layer_1" xmlns="http://www.w3.org/2000/svg" xmlns:xlink="http://www.w3.org/1999/xlink" x="0px" y="0px"
	 viewBox="0 0 511.999 511.999" style="enable-background:new 0 0 511.999 511.999;" xml:space="preserve">
<path style="fill:#89BBE4;" d="M273.234,1.826l163.692,35.087c14.122,3.027,24.211,15.508,24.211,29.951V263.7
	c0,128.089-114.226,209.637-188.434,244.563c-10.588,4.983-22.819,4.983-33.407,0C165.088,473.337,50.862,391.789,50.862,263.7
	V66.864c0-14.443,10.088-26.924,24.211-29.951L238.768,1.826C250.127-0.609,261.873-0.609,273.234,1.826z"/>
<path style="opacity:0.15;fill:#145587;enable-background:new    ;" d="M392.592,77.066L272.577,51.341
	c-5.463-1.171-11.02-1.757-16.576-1.757c-5.557,0-11.113,0.585-16.576,1.757L119.41,77.066c-11.662,2.5-19.993,12.806-19.993,24.733
	v15.43c0-11.927,8.331-22.233,19.993-24.733l120.014-25.724c5.463-1.171,11.02-1.757,16.576-1.757
	c5.556,0,11.113,0.585,16.576,1.757l120.016,25.724c11.662,2.5,19.993,12.806,19.993,24.733v-15.43
	C412.584,89.872,404.254,79.565,392.592,77.066z"/>
<path style="fill:#1F84CE;" d="M392.592,77.066L272.577,51.342c-5.463-1.172-11.02-1.757-16.576-1.757
	c-5.557,0-11.113,0.585-16.576,1.757L119.41,77.066c-11.662,2.5-19.993,12.806-19.993,24.733V263.7
	c0,47.384,20.576,91.858,61.157,132.187c28.266,28.091,59.709,47.92,83.654,60.577c3.683,1.947,7.728,2.92,11.773,2.92
	c4.045,0,8.089-0.974,11.773-2.92c23.946-12.657,55.387-32.485,83.654-60.577c40.58-40.33,61.157-84.803,61.157-132.187V101.798
	C412.584,89.872,404.254,79.565,392.592,77.066z"/>
<path style="fill:#FFFFFF;" d="M322.748,222.566h-32.224v-38.652c0-19.037-15.488-34.525-34.525-34.525
	s-34.525,15.488-34.525,34.525v38.652h-32.224v-38.652c0-36.805,29.943-66.748,66.748-66.748s66.748,29.943,66.748,66.748v38.652
	H322.748z"/>
<g>
	<rect x="189.25" y="191.724" style="opacity:0.3;fill:#145587;enable-background:new    ;" width="32.224" height="30.837"/>
	<rect x="290.519" y="191.724" style="opacity:0.3;fill:#145587;enable-background:new    ;" width="32.224" height="30.837"/>
</g>
<path style="fill:#F9C526;" d="M329.507,203.359H182.495c-5.165,0-9.354,4.188-9.354,9.354v108.96c0,5.165,4.187,9.354,9.354,9.354
	h147.012c5.165,0,9.354-4.187,9.354-9.354v-108.96C338.86,207.548,334.672,203.359,329.507,203.359z"/>
<path style="fill:#384148;" d="M276.158,245.316c0-11.326-9.34-20.47-20.739-20.148c-10.371,0.293-18.954,8.616-19.541,18.976
	c-0.372,6.558,2.395,12.479,6.934,16.41c0.997,0.864,1.506,2.16,1.35,3.469l-3.153,26.437c-0.364,3.051,2.019,5.735,5.092,5.735
	h19.798c3.073,0,5.456-2.684,5.092-5.735l-3.153-26.437c-0.156-1.311,0.356-2.608,1.354-3.473
	C273.458,256.855,276.158,251.402,276.158,245.316z"/>
<path style="opacity:0.2;enable-background:new    ;" d="M255.418,225.168c-10.371,0.293-18.954,8.616-19.541,18.976
	c-0.097,1.703,0.023,3.361,0.326,4.955c1.745-9.116,9.73-16.104,19.215-16.371c10.096-0.285,18.573,6.858,20.378,16.365
	c0.232-1.223,0.361-2.484,0.361-3.775C276.158,233.99,266.816,224.847,255.418,225.168z"/>
<path style="opacity:0.15;fill:#FFFFFF;enable-background:new    ;" d="M436.926,36.913l-33.347-7.148L73.901,359.444
	c15.386,30.587,37.157,57.013,61.203,79.272l326.034-326.034V66.864C461.138,52.42,451.049,39.94,436.926,36.913z"/>
<g>
</g>
<g>
</g>
<g>
</g>
<g>
</g>
<g>
</g>
<g>
</g>
<g>
</g>
<g>
</g>
<g>
</g>
<g>
</g>
<g>
</g>
<g>
</g>
<g>
</g>
<g>
</g>
<g>
</g>
</svg>
