<?xml version="1.0" encoding="iso-8859-1"?>
<!-- Generator: Adobe Illustrator 19.0.0, SVG Export Plug-In . SVG Version: 6.00 Build 0)  -->
<svg version="1.1" id="Capa_1" xmlns="http://www.w3.org/2000/svg" xmlns:xlink="http://www.w3.org/1999/xlink" x="0px" y="0px"
	 viewBox="0 0 512 512" style="enable-background:new 0 0 512 512;" xml:space="preserve">
<path style="fill:#D9DBDB;" d="M449.51,329.162c-10.2,0-179.16,0-185.835,0V267.45c0-4.275-3.465-7.74-7.74-7.74
	c-4.275,0-7.74,3.465-7.74,7.74v61.712c-6.977,0-176.122,0-185.835,0c-15.213,0-27.59,12.376-27.59,27.589v53.481
	c0,4.275,3.465,7.74,7.74,7.74s7.74-3.465,7.74-7.74v-53.481c0-6.676,5.432-12.108,12.109-12.108h102.835
	c-1.767,7.334-1.358,7.971-1.358,65.589c0,4.275,3.465,7.74,7.74,7.74c4.275,0,7.74-3.465,7.74-7.74
	c0-55.911-0.641-59.846,2.16-65.589h148.915c2.788,5.72,2.159,9.621,2.159,65.589c0,4.275,3.465,7.74,7.74,7.74
	s7.74-3.465,7.74-7.74c0-58.703,0.399-58.296-1.358-65.589H449.51c6.676,0,12.108,5.432,12.108,12.108v53.481
	c0,4.275,3.465,7.74,7.74,7.74s7.74-3.465,7.74-7.74v-53.481C477.099,341.539,464.722,329.162,449.51,329.162z"/>
<path style="fill:#6EDCF9;" d="M402.282,98.184c-0.91-36.316-36.437-61.87-71.246-50.918c-16.544-23.704-44.005-39.223-75.1-39.223
	c-31.099,0-58.555,15.52-75.099,39.219c-34.894-10.936-70.336,14.655-71.25,50.921c-38.337,10.92-66.427,46.183-66.427,88.028
	c0,50.558,40.984,91.543,91.545,91.543c7.736,0,237.221,0,242.462,0c50.556,0,91.542-40.985,91.542-91.543
	C468.709,144.369,440.625,109.103,402.282,98.184z"/>
<path style="fill:#54B8E5;" d="M305.095,22.404c-14.199-9.077-31.054-14.362-49.158-14.362c-31.099,0-58.555,15.52-75.099,39.219
	c-34.894-10.936-70.336,14.655-71.25,50.921c-89.175,25.404-88.521,158.387,2.614,176.77
	c-58.87-53.32-36.184-135.852,21.851-160.059c5.229-2.857,10.259-6.599,11.065-12.504l0.002-0.003
	c5.252-27.427,30.849-47.439,60.127-44.059c0.073-0.005,0.136-0.016,0.208-0.016c5.737-0.008,11.933-0.867,15.673-5.215
	c0.037-0.059,0.062-0.104,0.062-0.104l0.013,0.016c16.782-19.451,41.578-31.79,69.289-31.79
	C295.465,21.22,300.336,21.64,305.095,22.404z"/>
<path style="fill:#585A60;" d="M0.023,486.662c0,9.552,7.558,17.296,16.879,17.296h52.514c9.322,0,16.879-7.744,16.879-17.296
	V476.09c0-9.553-7.557-17.296-16.879-17.296H16.902c-9.321,0-16.879,7.744-16.879,17.296C0.023,476.09,0.023,486.662,0.023,486.662z
	"/>
<path style="fill:#414356;" d="M69.417,481.376H16.902c-7.257,0-13.428-4.704-15.812-11.291c-1.333,3.684-1.067,5.243-1.067,16.577
	c0,9.552,7.558,17.296,16.879,17.296h52.514c9.322,0,16.879-7.744,16.879-17.296c0-11.241,0.277-12.864-1.067-16.577
	C82.845,476.672,76.675,481.376,69.417,481.376z"/>
<path style="fill:#858689;" d="M0.023,441.496c0,9.552,7.558,17.298,16.879,17.298h52.514c9.322,0,16.879-7.745,16.879-17.298
	v-10.571c0-9.553-7.557-17.297-16.879-17.297H16.902c-9.321,0-16.879,7.744-16.879,17.297
	C0.023,430.925,0.023,441.496,0.023,441.496z"/>
<path style="fill:#77787A;" d="M69.417,436.21H16.902c-7.257,0-13.428-4.704-15.812-11.291c-1.341,3.708-1.067,5.311-1.067,16.577
	c0,9.552,7.558,17.298,16.879,17.298h52.514c9.322,0,16.879-7.745,16.879-17.298c0-11.283,0.271-12.877-1.067-16.577
	C82.845,431.506,76.675,436.21,69.417,436.21z"/>
<path style="fill:#585A60;" d="M128.44,486.662c0,9.552,7.558,17.296,16.879,17.296h52.514c9.322,0,16.879-7.744,16.879-17.296
	V476.09c0-9.553-7.557-17.296-16.879-17.296H145.32c-9.322,0-16.879,7.744-16.879,17.296v10.572H128.44z"/>
<path style="fill:#414356;" d="M197.834,481.376H145.32c-7.258,0-13.428-4.704-15.813-11.291c-1.336,3.691-1.067,5.266-1.067,16.577
	c0,9.552,7.558,17.296,16.879,17.296h52.514c9.322,0,16.879-7.744,16.879-17.296c0-11.241,0.277-12.864-1.067-16.577
	C211.262,476.672,205.092,481.376,197.834,481.376z"/>
<path style="fill:#858689;" d="M128.44,441.496c0,9.552,7.558,17.298,16.879,17.298h52.514c9.322,0,16.879-7.745,16.879-17.298
	v-10.571c0-9.553-7.557-17.297-16.879-17.297H145.32c-9.322,0-16.879,7.744-16.879,17.297v10.571H128.44z"/>
<path style="fill:#77787A;" d="M197.834,436.21H145.32c-7.258,0-13.428-4.704-15.813-11.291c-1.343,3.713-1.067,5.332-1.067,16.577
	c0,9.552,7.558,17.298,16.879,17.298h52.514c9.322,0,16.879-7.745,16.879-17.298c0-11.283,0.271-12.877-1.067-16.577
	C211.262,431.506,205.092,436.21,197.834,436.21z"/>
<path style="fill:#585A60;" d="M297.286,486.662c0,9.552,7.558,17.296,16.879,17.296h52.514c9.322,0,16.879-7.744,16.879-17.296
	V476.09c0-9.553-7.557-17.296-16.879-17.296h-52.514c-9.321,0-16.879,7.744-16.879,17.296V486.662z"/>
<path style="fill:#414356;" d="M366.68,481.376h-52.514c-7.257,0-13.428-4.704-15.813-11.291c-1.343,3.711-1.067,5.33-1.067,16.577
	c0,9.552,7.558,17.296,16.879,17.296h52.514c9.322,0,16.879-7.744,16.879-17.296V476.09c0-2.115-0.389-4.132-1.067-6.005
	C380.108,476.672,373.938,481.376,366.68,481.376z"/>
<path style="fill:#858689;" d="M297.286,441.496c0,9.552,7.558,17.298,16.879,17.298h52.514c9.322,0,16.879-7.745,16.879-17.298
	v-10.571c0-9.553-7.557-17.297-16.879-17.297h-52.514c-9.321,0-16.879,7.744-16.879,17.297V441.496z"/>
<path style="fill:#77787A;" d="M366.68,436.21h-52.514c-7.257,0-13.428-4.704-15.813-11.291c-1.344,3.716-1.067,5.338-1.067,16.577
	c0,9.552,7.558,17.298,16.879,17.298h52.514c9.322,0,16.879-7.745,16.879-17.298c0-11.306,0.269-12.885-1.067-16.577
	C380.108,431.506,373.938,436.21,366.68,436.21z"/>
<path style="fill:#585A60;" d="M425.704,486.662c0,9.552,7.558,17.296,16.879,17.296h52.514c9.323,0,16.879-7.744,16.879-17.296
	V476.09c0-9.553-7.557-17.296-16.879-17.296h-52.514c-9.321,0-16.879,7.744-16.879,17.296V486.662z"/>
<path style="fill:#414356;" d="M495.097,481.376h-52.514c-7.257,0-13.428-4.704-15.812-11.291
	c-1.333,3.684-1.067,5.243-1.067,16.577c0,9.552,7.558,17.296,16.879,17.296h52.514c9.323,0,16.879-7.744,16.879-17.296
	c0-11.241,0.277-12.864-1.067-16.577C508.526,476.672,502.356,481.376,495.097,481.376z"/>
<path style="fill:#858689;" d="M425.704,441.496c0,9.552,7.558,17.298,16.879,17.298h52.514c9.323,0,16.879-7.745,16.879-17.298
	v-10.571c0-9.553-7.557-17.297-16.879-17.297h-52.514c-9.321,0-16.879,7.744-16.879,17.297V441.496z"/>
<path style="fill:#77787A;" d="M495.097,436.21h-52.514c-7.257,0-13.428-4.704-15.812-11.291c-1.341,3.708-1.067,5.311-1.067,16.577
	c0,9.552,7.558,17.298,16.879,17.298h52.514c9.323,0,16.879-7.745,16.879-17.298v-10.571c0-2.115-0.389-4.132-1.067-6.006
	C508.526,431.506,502.356,436.21,495.097,436.21z"/>
<g>
</g>
<g>
</g>
<g>
</g>
<g>
</g>
<g>
</g>
<g>
</g>
<g>
</g>
<g>
</g>
<g>
</g>
<g>
</g>
<g>
</g>
<g>
</g>
<g>
</g>
<g>
</g>
<g>
</g>
</svg>
