<?xml version="1.0" ?><svg enable-background="new 0 0 64 64" height="64px" version="1.1" viewBox="0 0 64 64" width="64px" xml:space="preserve" xmlns="http://www.w3.org/2000/svg" xmlns:xlink="http://www.w3.org/1999/xlink"><g id="Layer_1"><g><circle cx="32" cy="32" fill="#76C2AF" r="32"/></g><g opacity="0.2"><path d="M44,52c0,1.105-0.895,2-2,2H22c-1.105,0-2-0.895-2-2l0,0c0-1.105,0.895-2,2-2h20    C43.105,50,44,50.895,44,52L44,52z" fill="#231F20"/></g><g><path d="M44,50c0,1.105-0.895,2-2,2H22c-1.105,0-2-0.895-2-2l0,0c0-1.105,0.895-2,2-2h20    C43.105,48,44,48.895,44,50L44,50z" fill="#FFFFFF"/></g><g><path d="M37,42c0,0-1,6,3,6c0,0-20,0-16,0s3-6,3-6H37z" fill="#E0E0D1"/></g><g opacity="0.2"><g><path d="M52,40c0,2.209-1.791,4-4,4H16c-2.209,0-4-1.791-4-4V18c0-2.209,1.791-4,4-4h32c2.209,0,4,1.791,4,4V40z" fill="#231F20"/></g></g><g><g><path d="M16,40.5c-1.379,0-2.5-1.121-2.5-2.5V16c0-1.379,1.121-2.5,2.5-2.5h32c1.379,0,2.5,1.121,2.5,2.5v22     c0,1.379-1.121,2.5-2.5,2.5H16z" fill="#4F5D73"/></g><g><path d="M48,15c0.551,0,1,0.449,1,1v22c0,0.551-0.449,1-1,1H16c-0.551,0-1-0.449-1-1V16c0-0.551,0.449-1,1-1H48      M48,12H16c-2.209,0-4,1.791-4,4v22c0,2.209,1.791,4,4,4h32c2.209,0,4-1.791,4-4V16C52,13.791,50.209,12,48,12L48,12z" fill="#FFFFFF"/></g></g><g opacity="0.2"><polygon fill="#FFFFFF" points="50.001,39.879 50.001,13.88 26.25,13.88 41.203,39.879   "/></g></g><g id="Layer_2"/></svg>