<svg height="502pt" viewBox="-91 0 502 502.67488" width="502pt" xmlns="http://www.w3.org/2000/svg"><path d="m160.335938 187.234375c26.511718 0 48-21.488281 48-48 0-26.507813-21.488282-48-48-48-26.507813 0-48 21.492187-48 48 .027343 26.5 21.503906 47.972656 48 48zm0-16c-11.378907-.035156-21.878907-6.132813-27.550782-16h55.105469c-5.671875 9.867187-16.171875 15.964844-27.554687 16zm0-64c17.675781 0 32 14.328125 32 32h-64c0-17.671875 14.328124-32 32-32zm0 0"/><path d="m320.335938 251.234375c-.058594-45.46875-34.71875-83.421875-80-87.589844v-21.898437c-.042969-34.511719-11.789063-67.992188-33.320313-94.96875l-34.398437-41.285156c-3.128907-3.496094-7.601563-5.492188-12.292969-5.492188-4.691407 0-9.160157 1.996094-12.289063 5.492188l-33.839844 40.613281-.546874.679687c-21.523438 26.976563-33.265626 60.453125-33.3125 94.960938v21.898437c-45.277344 4.167969-79.9375 42.121094-80 87.589844v72.800781l80-8v23.199219h29.753906l-8 32h14.582031c-8.128906 11.746094-12.4375 25.714844-12.335937 40 0 33.265625 45.136718 80.335937 50.28125 85.601563l5.71875 5.839843 5.722656-5.847656c5.144531-5.257813 50.277344-52.328125 50.277344-85.59375.105468-14.285156-4.203126-28.253906-12.335938-40h14.585938l-8-32h29.75v-23.199219l80 8zm-304 55.199219v-55.199219c.046874-36.652344 27.582031-67.4375 64-71.550781v120.351562zm184 104.800781c0 19.808594-25.152344 51.832031-40 68.296875-14.847657-16.464844-40-48.464844-40-68.296875-.28125-15.371094 6.359374-30.058594 18.089843-40h43.824219c11.730469 9.941406 18.371094 24.628906 18.085938 40zm-2.246094-56h-75.503906l4-16h67.503906zm26.246094-32h-128v-181.488281c.070312-31.054688 10.699218-61.167969 30.144531-85.382813l33.855469-40.625 34.203124 41.046875c19.253907 24.136719 29.757813 54.085938 29.796876 84.960938v141.488281h-104v16h104zm80-16.800781-64-6.398438v-120.351562c36.421874 4.113281 63.957031 34.898437 64 71.550781zm0 0"/></svg>