<?xml version="1.0" encoding="iso-8859-1"?>
<!-- Generator: Adobe Illustrator 19.0.0, SVG Export Plug-In . SVG Version: 6.00 Build 0)  -->
<svg version="1.1" id="Capa_1" xmlns="http://www.w3.org/2000/svg" xmlns:xlink="http://www.w3.org/1999/xlink" x="0px" y="0px"
	 viewBox="0 0 512 512" style="enable-background:new 0 0 512 512;" xml:space="preserve">
<rect x="204.8" y="408.323" style="fill:#ABBACD;" width="102.4" height="62.295"/>
<rect x="204.8" y="408.323" style="fill:#91A4B6;" width="102.4" height="28.209"/>
<path style="fill:#BAC7D9;" d="M494.933,72.534c9.426,0,17.067,7.641,17.067,17.067V396.8c0,9.426-7.641,17.067-17.067,17.067
	H17.067C7.641,413.867,0,406.226,0,396.8V89.601c0-9.426,7.641-17.067,17.067-17.067H494.933z"/>
<path style="fill:#A5B5CC;" d="M494.933,72.534H472.27c9.426,0,17.067,7.641,17.067,17.067V396.8
	c0,9.426-7.641,17.067-17.067,17.067h22.663c9.426,0,17.067-7.641,17.067-17.067V89.601C512,80.176,504.359,72.534,494.933,72.534z"
	/>
<circle style="fill:#D7DCF2;" cx="256" cy="379.735" r="12.801"/>
<path style="fill:#474855;" d="M512,345.599V89.601c0-9.426-7.641-17.067-17.067-17.067H17.067C7.641,72.534,0,80.176,0,89.601
	v255.998H512z"/>
<path style="fill:#3C3C47;" d="M494.933,72.534h-22.664c9.426,0,17.067,7.641,17.067,17.067v255.998H512V89.601
	C512,80.176,504.359,72.534,494.933,72.534z"/>
<path style="fill:#FFFFFF;" d="M25.6,104.315v209.503c0,3.414,2.767,6.181,6.181,6.181H480.22c3.414,0,6.181-2.767,6.181-6.181
	V104.315c0-3.414-2.767-6.181-6.181-6.181H31.781C28.367,98.134,25.6,100.902,25.6,104.315z"/>
<path style="fill:#FF5A6A;" d="M486.398,140.8H25.601v-36.485c0-3.414,2.767-6.181,6.181-6.181H480.22
	c3.414,0,6.181,2.768,6.181,6.181L486.398,140.8z"/>
<path style="fill:#FFFFFF;" d="M68.266,127.193H51.201c-4.267,0-7.726-3.459-7.726-7.726s3.459-7.726,7.726-7.726h17.065
	c4.267,0,7.726,3.459,7.726,7.726S72.533,127.193,68.266,127.193z"/>
<path style="fill:#BAC7D9;" d="M369.286,499.201h-226.57c-3.414,0-6.181-2.767-6.181-6.181v-21.771c0-3.414,2.767-6.181,6.181-6.181
	h226.571c3.414,0,6.181,2.767,6.181,6.181v21.771C375.467,496.434,372.7,499.201,369.286,499.201z"/>
<path style="fill:#A5B5CC;" d="M369.286,465.068h-22.664c3.414,0,6.181,2.767,6.181,6.181v21.771c0,3.414-2.767,6.181-6.181,6.181
	h22.664c3.414,0,6.181-2.767,6.181-6.181v-21.771C375.467,467.835,372.7,465.068,369.286,465.068z"/>
<path style="fill:#ABECFD;" d="M324.267,192.001h96.22c3.414,0,6.181-2.767,6.181-6.181l-0.001-19.42
	c0-37.703-30.563-68.266-68.265-68.266v-0.001c0-47.129-38.205-85.334-85.333-85.334s-85.333,38.204-85.333,85.332h-42.669
	c-32.991,0-59.734,26.743-59.734,59.734v27.955c0,3.414,2.767,6.181,6.181,6.181h96.221L324.267,192.001L324.267,192.001z"/>
<path style="fill:#8DDDF2;" d="M426.667,166.4c0-37.703-30.563-68.266-68.265-68.266v-0.001c0-47.129-38.205-85.334-85.333-85.334
	c-3.845,0-7.622,0.279-11.332,0.772c41.768,5.545,74.001,41.277,74.001,84.561v0.001c37.702,0,68.265,30.564,68.265,68.266
	L404.004,192h16.483c3.414,0,6.181-2.767,6.181-6.181L426.667,166.4z"/>
<circle style="fill:#FF5A6A;" cx="256" cy="209.065" r="68.27"/>
<path style="fill:#FFFFFF;" d="M273.068,209.067v-36.485c0-3.414-2.767-6.181-6.181-6.181h-21.771c-3.414,0-6.181,2.767-6.181,6.181
	v36.485h-4.208c-5.183,0-8.064,5.996-4.826,10.042l21.274,26.592c2.474,3.094,7.179,3.093,9.653,0l21.272-26.592
	c3.238-4.048,0.356-10.042-4.826-10.042H273.068z"/>
<path style="fill:#F04354;" d="M256.001,140.801c-3.862,0-7.645,0.337-11.332,0.954c32.306,5.4,56.934,33.473,56.934,67.312
	s-24.628,61.912-56.934,67.312c3.687,0.616,7.47,0.954,11.332,0.954c37.703,0,68.266-30.563,68.266-68.266
	C324.267,171.365,293.704,140.801,256.001,140.801z"/>
<g>
</g>
<g>
</g>
<g>
</g>
<g>
</g>
<g>
</g>
<g>
</g>
<g>
</g>
<g>
</g>
<g>
</g>
<g>
</g>
<g>
</g>
<g>
</g>
<g>
</g>
<g>
</g>
<g>
</g>
</svg>
