<?xml version="1.0" encoding="iso-8859-1"?>
<!-- Generator: Adobe Illustrator 19.0.0, SVG Export Plug-In . SVG Version: 6.00 Build 0)  -->
<svg version="1.1" id="Layer_1" xmlns="http://www.w3.org/2000/svg" xmlns:xlink="http://www.w3.org/1999/xlink" x="0px" y="0px"
	 viewBox="0 0 512 512" style="enable-background:new 0 0 512 512;" xml:space="preserve">
<path style="fill:#F7CB4F;" d="M504.151,90.58H300.833c-4.14,0-7.497,3.357-7.497,7.497v64.226
	c-6.605-3.936-14.224-6.099-22.121-6.099c-23.974,0-43.478,19.504-43.478,43.478s19.504,43.478,43.478,43.478
	c7.897,0,15.515-2.162,22.121-6.099v64.226c0,4.14,3.357,7.497,7.497,7.497h81.022c3.269,0,6.16-2.117,7.146-5.233
	c0.988-3.116-0.157-6.512-2.829-8.394c-7.584-5.341-12.111-14.052-12.111-23.3c0-15.706,12.778-28.484,28.484-28.484
	c15.706,0,28.483,12.778,28.483,28.484c0,9.247-4.527,17.958-12.111,23.3c-2.672,1.882-3.817,5.278-2.829,8.394
	c0.987,3.116,3.879,5.233,7.146,5.233h80.917c4.141,0,7.497-3.357,7.497-7.497V98.077C511.648,93.937,508.292,90.58,504.151,90.58z"
	/>
<path style="fill:#F4B008;" d="M504.151,90.58h-21.037v218.207h21.037c4.141,0,7.497-3.357,7.497-7.497V98.077
	C511.648,93.937,508.292,90.58,504.151,90.58z"/>
<path style="fill:#68B9D8;" d="M330.453,359.418c-7.897,0-15.516,2.162-22.122,6.1V301.29c0-4.14-3.356-7.497-7.497-7.497h-81.022
	c-3.269,0-6.16,2.117-7.146,5.233c-0.988,3.116,0.157,6.512,2.829,8.394c7.585,5.342,12.112,14.053,12.112,23.3
	c0,15.706-12.778,28.484-28.484,28.484s-28.484-12.778-28.484-28.484c0-9.247,4.527-17.958,12.112-23.3
	c2.672-1.882,3.817-5.278,2.829-8.394c-0.987-3.116-3.879-5.233-7.146-5.233H97.515c-4.141,0-7.497,3.357-7.497,7.497v203.213
	c0,4.14,3.356,7.497,7.497,7.497h203.317c4.141,0,7.497-3.357,7.497-7.497v-64.227c6.606,3.936,14.224,6.099,22.122,6.099
	c23.974,0,43.478-19.504,43.478-43.478C373.931,378.922,354.427,359.418,330.453,359.418z"/>
<path style="fill:#546F7A;" d="M183.443,81.304c9.436,0,18.301,4.587,23.713,12.27c1.882,2.672,5.279,3.817,8.393,2.831
	c3.116-0.987,5.233-3.879,5.233-7.147V7.497c0-4.14-3.356-7.497-7.497-7.497H7.848C3.707,0,0.351,3.357,0.351,7.497V212.83
	c0,4.14,3.356,7.497,7.497,7.497h65.048c-4.023,6.713-6.236,14.478-6.236,22.536c0,24.181,19.672,43.853,43.853,43.853
	s43.854-19.672,43.854-43.853c0-8.058-2.212-15.823-6.236-22.536h65.154c4.141,0,7.497-3.357,7.497-7.497V131.07
	c0-3.269-2.117-6.16-5.232-7.147c-3.114-0.986-6.512,0.158-8.394,2.83c-5.412,7.684-14.276,12.27-23.713,12.27
	c-15.913,0-28.859-12.946-28.859-28.859C154.585,94.251,167.531,81.304,183.443,81.304z"/>
<g>
	<path style="fill:#465A65;" d="M169.808,84.736c-4.153-2.216-8.843-3.433-13.687-3.433c-15.913,0-28.859,12.946-28.859,28.86
		c0,15.913,12.946,28.859,28.859,28.859c4.844,0,9.534-1.217,13.687-3.433c-9.054-4.875-15.223-14.443-15.223-25.426
		C154.585,99.18,160.754,89.612,169.808,84.736z"/>
	<path style="fill:#465A65;" d="M120.81,220.327c4.023,6.713,6.236,14.478,6.236,22.536c0,19.412-12.682,35.907-30.192,41.663
		c4.302,1.414,8.892,2.19,13.661,2.19c24.181,0,43.854-19.672,43.854-43.853c0-8.058-2.212-15.823-6.236-22.536H120.81z"/>
	<path style="fill:#465A65;" d="M213.286,0h-27.322c4.141,0,7.497,3.357,7.497,7.497V83.09c5.461,2.004,10.271,5.622,13.696,10.485
		c1.882,2.672,5.279,3.817,8.393,2.831c3.116-0.987,5.233-3.879,5.233-7.147V7.497C220.783,3.357,217.427,0,213.286,0z"/>
	<path style="fill:#465A65;" d="M215.551,123.922c-3.114-0.986-6.512,0.158-8.394,2.83c-3.426,4.863-8.236,8.481-13.696,10.485
		v75.593c0,4.14-3.356,7.497-7.497,7.497h27.322c4.141,0,7.497-3.357,7.497-7.497V131.07
		C220.783,127.801,218.666,124.909,215.551,123.922z"/>
</g>
<path style="fill:#F2464F;" d="M504.151,293.793h-64.24c3.945-6.629,6.112-14.284,6.112-22.226
	c0-23.974-19.504-43.478-43.477-43.478c-23.974,0-43.478,19.505-43.478,43.478c0,7.943,2.167,15.597,6.112,22.226h-64.345
	c-4.14,0-7.497,3.357-7.497,7.497v78.906c7.655-12.45,21.399-20.755,37.087-20.755c24.029,0,43.508,19.48,43.508,43.509
	c0,24.029-19.479,43.508-43.508,43.508c-15.687,0-29.432-8.305-37.087-20.755v78.8c0,4.14,3.357,7.497,7.497,7.497h203.319
	c4.141,0,7.497-3.357,7.497-7.497V301.29C511.648,297.15,508.292,293.793,504.151,293.793z"/>
<path style="fill:#D3333C;" d="M504.151,293.793h-21.037V512h21.037c4.141,0,7.497-3.357,7.497-7.497V301.29
	C511.648,297.15,508.292,293.793,504.151,293.793z"/>
<g>
</g>
<g>
</g>
<g>
</g>
<g>
</g>
<g>
</g>
<g>
</g>
<g>
</g>
<g>
</g>
<g>
</g>
<g>
</g>
<g>
</g>
<g>
</g>
<g>
</g>
<g>
</g>
<g>
</g>
</svg>
