<svg height="512pt" viewBox="0 0 512 512.00038" width="512pt" xmlns="http://www.w3.org/2000/svg"><path d="m376.476562 292.636719c-1.949218 0-3.894531-.742188-5.382812-2.226563-2.972656-2.976562-2.972656-7.792968 0-10.765625l15.402344-15.398437c2.972656-2.972656 7.789062-2.96875 10.761718.003906 2.972657 2.972656 2.972657 7.789062 0 10.761719l-15.398437 15.398437c-1.488281 1.484375-3.433594 2.226563-5.382813 2.226563zm0 0" fill="#009af2"/><path d="m227.03125 143.152344c-1.949219 0-3.898438-.742188-5.382812-2.230469-2.972657-2.972656-2.972657-7.792969 0-10.765625l15.398437-15.394531c2.972656-2.972657 7.792969-2.972657 10.765625 0 2.972656 2.972656 2.972656 7.792969 0 10.765625l-15.402344 15.394531c-1.484375 1.488281-3.433594 2.230469-5.378906 2.230469zm0 0" fill="#009af2"/><path d="m327.625 88.46875 14.203125-14.199219c4.125-4.125 10.820313-4.125 14.945313 0l81.003906 81.027344c4.125 4.125 4.125 10.820313 0 14.945313l-14.203125 14.199218c-4.125 4.125-10.820313 4.125-14.945313-.003906l-81.003906-81.023438c-4.125-4.125-4.125-10.820312 0-14.945312zm0 0" fill="#3bc3ff"/><path d="m327.625 88.46875 5.964844-5.964844c.15625.128906.308594.277344.457031.425782l95.066406 95.09375c.148438.148437.300781.300781.425781.457031l-5.964843 5.960937c-4.125 4.125-10.820313 4.125-14.945313 0l-81.003906-81.027344c-4.125-4.125-4.125-10.820312 0-14.945312zm0 0" fill="#009af2"/><path d="m172.757812 512c-1.949218 0-3.894531-.742188-5.382812-2.230469-2.972656-2.972656-2.972656-7.792969 0-10.765625l15.402344-15.394531c2.972656-2.972656 7.789062-2.972656 10.761718 0 2.972657 2.972656 2.972657 7.792969 0 10.765625l-15.398437 15.394531c-1.488281 1.488281-3.4375 2.230469-5.382813 2.230469zm0 0" fill="#8bc1c6"/><path d="m7.613281 346.808594c-1.949219 0-3.898437-.742188-5.382812-2.226563-2.972657-2.976562-2.972657-7.792969 0-10.765625l15.398437-15.398437c2.972656-2.96875 7.792969-2.96875 10.765625.003906 2.972657 2.972656 2.972657 7.789063 0 10.761719l-15.402343 15.398437c-1.484376 1.484375-3.433594 2.226563-5.378907 2.226563zm0 0" fill="#8bc1c6"/><path d="m69.859375 449.722656c-2.011719 0-3.949219-.796875-5.382813-2.230468-1.535156-1.535157-2.339843-3.652344-2.214843-5.820313l4.765625-82.507813c.242187-4.195312 3.84375-7.410156 8.039062-7.160156 4.199219.242188 7.402344 3.84375 7.160156 8.039063l-4.273437 73.980469 73.980469-4.257813c4.183594-.234375 7.792968 2.964844 8.035156 7.164063.238281 4.195312-2.964844 7.792968-7.164062 8.035156l-82.507813 4.746094c-.144531.007812-.292969.011718-.4375.011718zm0 0" fill="#009af2"/><path d="m58.695312 460.886719c-1.949218 0-3.898437-.742188-5.382812-2.226563-2.972656-2.976562-2.972656-7.792968 0-10.765625l48.386719-48.375c2.972656-2.972656 7.789062-2.96875 10.761719 0 2.972656 2.976563 2.972656 7.792969 0 10.765625l-48.386719 48.375c-1.484375 1.484375-3.433594 2.226563-5.378907 2.226563zm0 0" fill="#009af2"/><path d="m230.109375 467.304688c-2.324219 4.585937-4.921875 9.074218-7.800781 13.425781-3.675782 5.582031-7.804688 10.964843-12.382813 16.078125-2.8125 3.136718-7.671875 3.289062-10.65625.316406l-184.382812-184.433594c-2.972657-2.984375-2.820313-7.847656.316406-10.65625 5.113281-4.578125 10.492187-8.707031 16.074219-12.371094 4.355468-2.894531 8.839844-5.492187 13.429687-7.816406 51.765625-26.253906 116.648438-17.738281 159.910157 25.546875 43.261718 43.28125 51.757812 108.152344 25.492187 159.910157zm0 0" fill="#bcdde2"/><path d="m15.199219 302.039062c54.167969-48.460937 137.402343-46.679687 189.417969 5.351563 52.015624 52.03125 53.777343 135.265625 5.300781 189.421875-1.367188 1.53125-3.226563 2.347656-5.125 2.4375 37.636719-53.800781 32.453125-128.425781-15.574219-176.464844-48.027344-48.039062-122.648438-53.242187-176.457031-15.621094.089843-1.898437.902343-3.757812 2.4375-5.125zm0 0" fill="#8bc1c6"/><g fill="#bcdde2"><path d="m289.222656 331.789062-27.132812-27.140624 14.527344-14.523438 27.132812 27.140625zm0 0"/><path d="m336.066406 284.957031-27.132812-27.136719 14.527344-14.523437 27.132812 27.140625zm0 0"/><path d="m207.382812 249.921875-27.132812-27.136719 14.527344-14.523437 27.132812 27.140625zm0 0"/><path d="m254.222656 203.09375-27.132812-27.140625 14.527344-14.519531 27.132812 27.136718zm0 0"/></g><path d="m366.730469 267.179688 142.253906 142.292968c3.996094 3.996094 3.992187 10.476563-.003906 14.472656l-66.289063 66.269532c-3.996094 3.996094-10.476562 3.996094-14.472656 0l-142.253906-142.289063c-3.996094-4-3.992188-10.476562.003906-14.472656l66.289062-66.273437c3.996094-3.996094 10.476563-3.996094 14.472657 0zm0 0" fill="#8df4ff"/><path d="m477.039062 377.515625 31.945313 31.957031c3.996094 3.996094 3.992187 10.476563-.003906 14.472656l-66.289063 66.269532c-3.996094 3.996094-10.476562 3.996094-14.472656 0l-31.945312-31.953125zm0 0" fill="#00e0ff"/><path d="m396.277344 458.265625-39.179688-39.191406 80.761719-80.742188 39.179687 39.191407zm0 0" fill="#009af2"/><path d="m357.09375 419.074219-39.179688-39.191407 80.765626-80.742187 39.179687 39.191406zm0 0" fill="#3bc3ff"/><path d="m459.679688 480.84375c-1.949219 0-3.898438-.742188-5.382813-2.230469l-58.773437-58.785156c-2.972657-2.972656-2.96875-7.792969.003906-10.765625s7.789062-2.96875 10.761718 0l58.773438 58.789062c2.972656 2.972657 2.96875 7.789063 0 10.765626-1.488281 1.484374-3.4375 2.226562-5.382812 2.226562zm0 0" fill="#ffbf00"/><path d="m395.347656 351.867188c-1.949218 0-3.898437-.742188-5.382812-2.230469l-58.773438-58.785157c-2.972656-2.972656-2.96875-7.792968.003906-10.765624 2.972657-2.972657 7.789063-2.972657 10.761719 0l58.773438 58.785156c2.972656 2.972656 2.96875 7.792968 0 10.765625-1.488281 1.488281-3.4375 2.230469-5.382813 2.230469zm0 0" fill="#ffbf00"/><path d="m102.621094 3 142.25 142.289062c3.996094 3.996094 3.996094 10.476563 0 14.472657l-66.292969 66.273437c-3.996094 3.996094-10.476563 3.992188-14.472656-.003906l-142.25-142.289062c-3.996094-3.996094-3.996094-10.476563.003906-14.472657l66.289063-66.273437c3.996093-3.996094 10.476562-3.996094 14.472656.003906zm0 0" fill="#8df4ff"/><path d="m212.925781 113.335938 31.945313 31.953124c3.996094 3.996094 3.996094 10.476563 0 14.472657l-66.292969 66.273437c-3.996094 3.996094-10.476563 3.996094-14.472656-.003906l-31.945313-31.953125zm0 0" fill="#00e0ff"/><path d="m132.164062 194.078125-39.179687-39.191406 80.761719-80.742188 39.179687 39.191407zm0 0" fill="#009af2"/><path d="m92.984375 154.886719-39.179687-39.191407 80.761718-80.742187 39.179688 39.191406zm0 0" fill="#3bc3ff"/><path d="m195.566406 216.664062c-1.945312 0-3.894531-.746093-5.382812-2.230468l-58.769532-58.789063c-2.972656-2.972656-2.972656-7.792969 0-10.765625 2.972657-2.96875 7.792969-2.96875 10.765626.003906l58.769531 58.785157c2.972656 2.972656 2.972656 7.792969 0 10.765625-1.488281 1.484375-3.433594 2.230468-5.382813 2.230468zm0 0" fill="#ffbf00"/><path d="m131.234375 87.683594c-1.945313 0-3.894531-.742188-5.382813-2.230469l-58.769531-58.785156c-2.972656-2.972657-2.972656-7.792969 0-10.765625 2.972657-2.972656 7.792969-2.972656 10.765625 0l58.769532 58.789062c2.972656 2.972656 2.972656 7.789063 0 10.765625-1.484376 1.484375-3.433594 2.226563-5.382813 2.226563zm0 0" fill="#ffbf00"/><path d="m380.097656 195.472656-13.496094 13.488282-135.527343 135.496093c-17.546875 17.535157-45.984375 17.535157-63.519531-.011719-8.769532-8.765624-13.152344-20.257812-13.152344-31.753906s4.382812-22.996094 13.152344-31.765625l135.535156-135.496093 13.488281-13.488282zm0 0" fill="#ffbf00"/><path d="m380.097656 195.472656-13.496094 13.488282-63.511718-63.53125 13.488281-13.484376zm0 0" fill="#f79800"/><path d="m325.074219 91.898438 95.070312 95.09375c4.128907 4.128906 4.125 10.820312 0 14.945312l-14.203125 14.199219c-4.128906 4.125-10.820312 4.125-14.949218-.003907l-95.066407-95.09375c-4.128906-4.125-4.128906-10.820312 0-14.945312l14.203125-14.199219c4.128906-4.125 10.820313-4.125 14.945313.003907zm0 0" fill="#bcdde2"/><path d="m253.984375 279.523438c0 11.871093-9.621094 21.492187-21.492187 21.492187-11.867188 0-21.492188-9.621094-21.492188-21.492187 0-11.867188 9.625-21.488282 21.492188-21.488282 11.871093 0 21.492187 9.621094 21.492187 21.488282zm0 0" fill="#00e0ff"/><path d="m272.394531 258.207031c-1.949219 0-3.898437-.746093-5.382812-2.230469l-10.960938-10.964843c-2.972656-2.972657-2.972656-7.792969 0-10.765625 2.972657-2.972656 7.792969-2.96875 10.765625.003906l10.960938 10.960938c2.972656 2.972656 2.96875 7.792968 0 10.765624-1.488282 1.484376-3.4375 2.230469-5.382813 2.230469zm0 0" fill="#f79800"/><path d="m284.90625 245.695312c-1.949219 0-3.898438-.742187-5.382812-2.230468l-10.960938-10.960938c-2.972656-2.972656-2.972656-7.792968 0-10.765625 2.972656-2.972656 7.792969-2.972656 10.765625 0l10.960937 10.964844c2.972657 2.972656 2.96875 7.792969 0 10.765625-1.488281 1.484375-3.433593 2.226562-5.382812 2.226562zm0 0" fill="#f79800"/><path d="m72.289062 320.199219c-1.492187 1.492187-3.441406 2.234375-5.378906 2.234375-1.949218 0-3.898437-.742188-5.390625-2.234375l-29.164062-29.175781c-.429688-.417969-.78125-.875-1.078125-1.359376 4.355468-2.894531 8.839844-5.492187 13.425781-7.816406l27.585937 27.597656c2.972657 2.972657 2.972657 7.792969 0 10.753907zm0 0" fill="#8bc1c6"/><path d="m230.109375 467.304688c-2.324219 4.585937-4.921875 9.074218-7.800781 13.425781-.488282-.28125-.945313-.648438-1.371094-1.074219l-29.167969-29.175781c-2.972656-2.976563-2.972656-7.785157 0-10.757813 2.972657-2.976562 7.792969-2.976562 10.769531 0zm0 0" fill="#8bc1c6"/><path d="m417.59375 151.402344c-1.945312 0-3.894531-.742188-5.382812-2.230469-2.96875-2.972656-2.96875-7.792969.003906-10.765625l15.398437-15.394531c2.972657-2.972657 7.792969-2.972657 10.765625 0 2.972656 2.972656 2.972656 7.792969 0 10.765625l-15.402344 15.394531c-1.484374 1.488281-3.433593 2.230469-5.382812 2.230469zm0 0" fill="#bcdde2"/><path d="m368.277344 102.070312c-1.949219 0-3.898438-.742187-5.382813-2.230468-2.972656-2.972656-2.972656-7.792969 0-10.765625l15.398438-15.394531c2.972656-2.972657 7.792969-2.972657 10.765625 0 2.972656 2.972656 2.972656 7.792968 0 10.765624l-15.402344 15.394532c-1.484375 1.488281-3.433594 2.230468-5.378906 2.230468zm0 0" fill="#bcdde2"/></svg>