<!DOCTYPE svg PUBLIC "-//W3C//DTD SVG 20010904//EN" "http://www.w3.org/TR/2001/REC-SVG-20010904/DTD/svg10.dtd">
<svg version="1.0" xmlns="http://www.w3.org/2000/svg" width="417px" height="150px" viewBox="0 0 4170 1500" preserveAspectRatio="xMidYMid meet">
<g id="layer101" fill="#000000" stroke="none">
<path d="M1364 1481 c-94 -58 -117 -177 -51 -265 74 -97 231 -87 293 19 50 86 18 206 -66 250 -42 22 -138 19 -176 -4z"/>
<path d="M2700 1380 l0 -30 85 0 c78 0 85 -2 85 -20 0 -18 -7 -20 -83 -20 -122 0 -127 -5 -127 -136 0 -140 4 -144 139 -144 96 0 100 1 120 26 19 24 21 40 21 168 0 189 2 186 -136 186 l-104 0 0 -30z m170 -210 l0 -70 -75 0 -75 0 0 70 0 70 75 0 75 0 0 -70z"/>
<path d="M1960 1140 l0 -170 149 0 150 0 20 26 c15 19 21 41 21 80 0 73 -13 102 -51 111 l-31 8 41 50 c23 27 41 53 41 57 0 5 -17 8 -37 8 -34 0 -43 -6 -87 -60 -49 -60 -50 -60 -103 -60 l-53 0 0 60 0 60 -30 0 -30 0 0 -170z m270 -55 l0 -45 -105 0 -105 0 0 45 0 45 105 0 105 0 0 -45z"/>
<path d="M2354 1289 c-16 -18 -19 -37 -19 -121 0 -131 7 -138 142 -138 86 0 96 2 118 25 21 20 25 34 25 85 l0 60 -110 0 c-103 0 -110 1 -110 20 0 18 8 20 108 22 l107 3 3 33 3 32 -124 0 c-113 0 -126 -2 -143 -21z m196 -169 c0 -18 -7 -20 -75 -20 -68 0 -75 2 -75 20 0 18 7 20 75 20 68 0 75 -2 75 -20z"/>
<path d="M2997 1292 c-12 -13 -17 -37 -17 -85 l0 -67 105 0 c98 0 105 -1 105 -20 0 -19 -7 -20 -105 -20 l-105 0 0 -35 0 -35 115 0 c110 0 117 1 140 25 24 23 25 30 25 140 l0 115 -123 0 c-107 0 -126 -2 -140 -18z m193 -72 c0 -18 -7 -20 -75 -20 -68 0 -75 2 -75 20 0 18 7 20 75 20 68 0 75 -2 75 -20z"/>
<path d="M3290 1196 c0 -99 3 -117 21 -140 19 -25 25 -26 110 -26 l89 0 0 35 0 35 -75 0 -75 0 0 105 0 105 -35 0 -35 0 0 -114z"/>
<path d="M3562 1294 c-20 -14 -22 -23 -22 -124 0 -136 4 -140 127 -140 l83 0 0 -40 c0 -39 1 -40 35 -40 l35 0 0 180 0 180 -118 0 c-90 0 -123 -4 -140 -16z m188 -124 l0 -70 -75 0 -75 0 0 70 0 70 75 0 75 0 0 -70z"/>
<path d="M3880 1290 c-11 -11 -20 -31 -20 -45 0 -21 5 -25 29 -25 17 0 33 5 36 10 3 6 40 10 81 10 67 0 74 -2 74 -20 0 -19 -7 -20 -94 -20 -87 0 -96 -2 -110 -22 -23 -33 -21 -99 4 -126 19 -20 31 -22 120 -22 87 0 103 3 120 20 11 11 20 31 20 45 0 21 -5 25 -30 25 -16 0 -30 -4 -30 -10 0 -6 -32 -10 -75 -10 -68 0 -75 2 -75 20 0 18 7 20 88 20 106 0 122 11 122 83 0 75 -19 87 -140 87 -87 0 -103 -3 -120 -20z"/>
<path d="M1353 1042 c-136 -49 -215 -154 -216 -292 -2 -97 25 -163 92 -231 67 -67 123 -89 226 -89 60 0 82 5 133 31 53 26 122 89 122 110 0 3 -20 14 -45 24 -93 35 -133 147 -84 235 23 41 73 80 103 80 28 0 18 26 -25 65 -84 76 -207 103 -306 67z"/>
<path d="M116 920 c-34 -11 -82 -54 -102 -92 -22 -42 -18 -126 9 -172 63 -111 237 -112 302 -2 27 47 33 113 14 163 -31 83 -133 130 -223 103z"/>
<path d="M2662 909 c-119 -59 -134 -223 -26 -305 33 -25 46 -29 105 -29 53 0 74 5 96 21 115 85 107 249 -17 312 -56 28 -103 28 -158 1z"/>
<path d="M1639 841 c-34 -34 -39 -44 -39 -85 0 -86 47 -136 127 -136 80 0 142 72 128 148 -14 73 -61 112 -136 112 -35 0 -48 -6 -80 -39z"/>
<path d="M2450 649 c-206 -160 -484 -290 -715 -336 -49 -9 -92 -18 -94 -20 -2 -1 4 -20 13 -43 18 -46 21 -106 6 -146 l-11 -27 54 7 c150 17 375 93 559 188 104 53 309 186 368 237 32 28 34 32 17 42 -42 25 -87 73 -103 110 -10 21 -20 39 -23 38 -3 0 -35 -23 -71 -50z"/>
<path d="M1368 330 c-71 -38 -108 -124 -88 -202 6 -22 29 -59 50 -81 36 -39 41 -41 107 -45 51 -3 78 0 101 12 86 44 119 164 68 250 -46 79 -156 109 -238 66z"/>
</g>
<g id="layer102" fill="#003560" stroke="none">
<path d="M1364 1481 c-94 -58 -117 -177 -51 -265 74 -96 231 -87 292 17 48 83 24 191 -54 244 -44 30 -141 32 -187 4z"/>
<path d="M1130 1401 c-263 -56 -517 -172 -765 -349 -120 -86 -125 -91 -101 -105 43 -26 94 -79 107 -110 7 -17 14 -34 15 -36 2 -2 34 19 71 47 244 180 509 301 748 343 36 6 65 12 65 14 0 1 -7 20 -16 41 -12 28 -15 58 -12 106 6 79 14 75 -112 49z"/>
<path d="M1353 1042 c-136 -49 -215 -154 -216 -292 -2 -133 66 -242 184 -295 55 -24 70 -27 143 -23 57 3 94 11 124 27 43 22 122 93 122 110 0 4 -20 16 -45 26 -92 34 -132 143 -86 232 20 41 74 83 105 83 28 0 18 26 -25 65 -84 76 -207 103 -306 67z"/>
<path d="M116 920 c-34 -11 -82 -54 -102 -92 -22 -42 -18 -126 9 -172 27 -48 94 -86 150 -86 124 0 211 129 166 247 -31 83 -133 130 -223 103z"/>
<path d="M2662 909 c-143 -71 -128 -279 24 -329 47 -16 119 -8 153 17 113 84 103 249 -19 311 -56 28 -103 28 -158 1z"/>
<path d="M1639 841 c-34 -34 -39 -44 -39 -85 0 -87 47 -136 128 -136 54 0 103 35 121 87 13 37 13 45 -3 88 -22 57 -63 85 -125 85 -37 0 -49 -6 -82 -39z"/>
<path d="M2450 649 c-210 -163 -516 -305 -732 -340 -43 -7 -78 -16 -78 -20 0 -3 7 -23 15 -42 17 -42 19 -104 5 -141 -12 -32 -6 -32 109 -11 131 25 317 90 456 159 128 63 336 194 405 255 32 28 34 32 17 42 -42 25 -87 73 -103 110 -10 21 -20 39 -23 38 -3 0 -35 -23 -71 -50z"/>
<path d="M1368 330 c-124 -66 -122 -251 3 -315 36 -19 132 -19 169 0 82 42 114 158 68 244 -44 82 -156 115 -240 71z"/>
</g>
<g id="layer103" fill="#003a67" stroke="none">
<path d="M1364 1481 c-88 -54 -115 -160 -62 -248 11 -18 21 -33 22 -33 2 0 1 30 -1 68 -4 59 -2 71 19 102 26 38 82 80 107 80 8 0 -5 -10 -29 -22 -59 -30 -90 -77 -90 -138 0 -97 38 -140 124 -140 66 0 119 30 152 85 35 60 32 142 -7 174 -15 13 -19 20 -10 21 19 0 -14 37 -51 56 -40 21 -136 18 -174 -5z"/>
<path d="M1150 1405 c-251 -46 -533 -173 -785 -353 -120 -86 -125 -91 -101 -105 43 -26 94 -79 107 -110 7 -17 14 -34 15 -36 2 -2 34 19 71 47 244 180 509 301 748 343 36 6 65 12 65 14 0 1 -7 20 -16 41 -12 28 -15 58 -12 106 4 47 2 68 -6 67 -6 0 -45 -7 -86 -14z"/>
<path d="M1353 1042 c-134 -48 -213 -153 -217 -287 -1 -54 21 -162 31 -151 2 2 6 33 7 70 6 118 76 219 185 269 71 33 189 30 258 -6 91 -47 113 -27 42 38 -84 76 -207 103 -306 67z"/>
<path d="M1352 919 c-61 -30 -102 -71 -138 -139 -15 -27 -19 -57 -19 -132 0 -53 3 -94 7 -92 4 3 8 -1 8 -10 0 -19 67 -71 126 -97 63 -28 188 -23 252 10 43 22 122 93 122 110 0 4 -20 16 -45 26 -115 44 -142 202 -48 281 32 27 25 38 -34 58 -77 26 -159 21 -231 -15z"/>
<path d="M116 920 c-34 -11 -82 -54 -102 -92 -20 -39 -18 -122 6 -168 23 -46 40 -59 34 -28 -3 19 -1 18 8 -4 37 -87 198 -72 261 24 29 45 37 121 17 159 -14 25 -62 49 -119 59 -37 6 -40 8 -15 9 17 0 51 -6 74 -14 l43 -15 -19 21 c-42 48 -122 68 -188 49z m29 -64 c-36 -15 -83 -68 -90 -99 -2 -12 -6 -40 -8 -62 -3 -38 -4 -38 -5 8 -1 26 5 61 12 76 19 36 82 91 104 91 10 -1 4 -6 -13 -14z"/>
<path d="M2662 909 c-88 -44 -123 -145 -82 -235 22 -46 23 -48 30 -24 7 22 8 22 11 5 1 -11 2 -25 2 -32 0 -7 18 -21 41 -33 69 -33 143 -24 195 23 29 27 61 93 61 127 0 34 -20 101 -28 96 -4 -2 -16 3 -27 11 -16 13 -17 15 -2 10 22 -8 22 5 -1 26 -26 24 -87 47 -124 47 -18 0 -52 -10 -76 -21z m105 -39 c-67 -12 -107 -38 -134 -89 -13 -24 -23 -38 -23 -30 0 8 12 32 26 53 30 44 92 76 144 75 31 -1 30 -2 -13 -9z"/>
<path d="M1639 841 c-35 -34 -39 -44 -39 -87 0 -52 32 -120 50 -109 6 4 17 -1 26 -9 43 -44 148 -1 173 71 13 36 13 45 -3 86 -12 32 -22 44 -32 40 -9 -3 -12 0 -9 9 8 19 -35 38 -87 38 -34 0 -47 -6 -79 -39z"/>
<path d="M2450 649 c-118 -92 -304 -199 -433 -250 -28 -12 -63 -26 -77 -32 -14 -5 -28 -10 -31 -9 -3 0 -7 -23 -8 -53 -1 -29 -6 -77 -11 -107 -4 -29 -4 -57 0 -62 15 -15 178 42 325 114 135 65 342 195 415 259 32 28 34 32 17 42 -42 25 -87 73 -103 110 -10 21 -20 39 -23 38 -3 0 -35 -23 -71 -50z"/>
<path d="M1367 329 c-67 -35 -108 -127 -87 -198 14 -51 40 -87 50 -70 6 9 10 6 15 -13 4 -14 18 -31 31 -37 35 -16 130 -14 164 4 71 37 107 134 80 216 -7 21 -15 37 -17 35 -3 -2 -20 2 -38 10 -78 32 -168 9 -211 -55 -13 -19 -24 -30 -24 -23 0 24 78 91 115 98 38 7 96 2 129 -12 37 -15 10 20 -34 43 -54 29 -121 29 -173 2z m-40 -227 c-2 -15 -4 -2 -4 28 0 30 2 43 4 27 2 -15 2 -39 0 -55z"/>
<path d="M1730 312 c-47 -8 -87 -16 -89 -18 -2 -1 5 -23 14 -49 14 -34 16 -60 11 -106 l-6 -61 43 7 c23 4 58 11 78 16 l36 9 11 82 c15 107 15 138 0 137 -7 -1 -51 -8 -98 -17z"/>
</g>
<g id="layer104" fill="#014878" stroke="none">
<path d="M1364 1481 c-68 -41 -102 -117 -85 -192 5 -23 16 -49 24 -57 14 -13 15 -10 10 25 -18 133 117 241 241 193 38 -14 33 6 -6 30 -44 27 -141 27 -184 1z"/>
<path d="M1435 1416 c-17 -7 -43 -28 -58 -45 -38 -45 -38 -120 -1 -177 24 -37 30 -41 75 -43 66 -3 121 27 154 82 36 62 34 111 -6 145 -60 52 -108 63 -164 38z"/>
<path d="M1200 1413 c-268 -40 -568 -170 -835 -361 -120 -86 -125 -91 -101 -105 43 -26 94 -79 107 -110 7 -17 14 -34 15 -36 2 -2 34 19 71 47 244 180 509 301 748 343 36 6 65 13 65 16 0 2 -7 18 -16 35 -16 32 -20 96 -9 148 7 32 7 31 -45 23z"/>
<path d="M1353 1042 c-159 -57 -246 -204 -212 -360 l13 -57 13 69 c17 92 44 146 99 196 68 62 124 85 214 85 65 0 84 -4 141 -32 75 -37 79 -38 79 -19 0 20 -76 85 -126 107 -65 29 -158 34 -221 11z"/>
<path d="M116 920 c-34 -11 -82 -54 -102 -92 -20 -39 -17 -126 7 -168 l19 -35 -6 47 c-7 57 9 113 45 151 49 54 104 70 184 53 50 -10 41 9 -17 35 -44 20 -83 23 -130 9z"/>
<path d="M2662 909 c-86 -43 -124 -150 -83 -234 l19 -40 1 58 c1 68 27 126 69 156 40 28 104 41 150 30 49 -11 54 -11 46 2 -11 19 -87 49 -124 49 -19 0 -54 -10 -78 -21z"/>
<path d="M1423 910 c-78 -18 -153 -86 -182 -163 -27 -71 -3 -208 42 -246 10 -7 17 -19 17 -26 0 -21 52 -38 130 -42 97 -6 170 20 235 82 25 24 45 48 45 53 0 5 -20 17 -45 27 -95 36 -133 147 -82 239 29 52 25 59 -43 75 -51 12 -72 12 -117 1z"/>
<path d="M1639 841 c-35 -34 -39 -44 -39 -87 0 -32 7 -61 21 -83 25 -42 31 -37 17 15 -14 51 -5 85 31 126 23 26 36 32 86 36 55 4 57 6 34 18 -13 7 -44 13 -68 14 -37 0 -49 -5 -82 -39z"/>
<path d="M144 831 c-53 -32 -74 -68 -74 -125 0 -42 6 -60 31 -94 27 -37 35 -42 72 -42 88 0 177 79 177 158 0 92 -123 153 -206 103z"/>
<path d="M2712 833 c-82 -40 -104 -147 -46 -220 65 -80 196 -42 239 71 22 56 17 85 -20 117 -61 53 -112 63 -173 32z"/>
<path d="M1703 810 c-58 -35 -62 -112 -11 -167 45 -48 132 -11 157 66 17 54 6 82 -42 104 -45 22 -65 21 -104 -3z"/>
<path d="M2450 649 c-89 -69 -224 -152 -342 -210 l-98 -48 -5 -93 c-2 -51 -8 -105 -13 -119 l-10 -26 56 19 c145 47 478 237 592 337 32 28 34 32 17 42 -42 25 -87 73 -103 110 -10 21 -20 39 -23 38 -3 0 -35 -23 -71 -50z"/>
<path d="M1368 330 c-90 -49 -122 -177 -64 -255 14 -18 15 -16 9 31 -14 130 110 234 232 194 50 -16 54 -7 9 21 -52 32 -136 36 -186 9z"/>
<path d="M1413 250 c-42 -25 -63 -68 -63 -128 0 -47 21 -90 55 -114 23 -17 112 -8 146 15 41 28 79 91 79 133 0 89 -132 146 -217 94z"/>
</g>
<g id="layer105" fill="#00568c" stroke="none">
<path d="M1364 1481 c-68 -41 -102 -117 -85 -192 11 -50 37 -81 28 -34 -9 49 13 114 52 155 47 49 105 67 172 54 27 -6 49 -9 49 -7 0 2 -15 12 -32 23 -44 27 -141 27 -184 1z"/>
<path d="M1431 1393 c-48 -24 -76 -88 -61 -142 12 -45 55 -86 99 -96 49 -11 112 32 146 100 20 38 -18 115 -69 139 -43 20 -72 20 -115 -1z"/>
<path d="M985 1359 c-4 -5 -12 -8 -18 -6 -30 10 -267 -93 -412 -178 -97 -57 -265 -172 -295 -202 -13 -13 -13 -16 4 -26 43 -26 94 -79 107 -110 7 -17 14 -34 15 -36 2 -2 34 19 71 47 197 145 457 277 617 313 31 7 56 16 56 20 0 4 -34 43 -75 87 -56 60 -71 82 -63 90 7 7 9 12 6 12 -4 0 -10 -5 -13 -11z"/>
<path d="M1353 1042 c-120 -43 -190 -123 -213 -245 -12 -58 -3 -148 11 -126 5 8 9 24 9 36 0 47 42 133 86 178 109 113 284 134 408 50 43 -29 46 -30 46 -11 0 20 -76 85 -126 107 -65 29 -158 34 -221 11z"/>
<path d="M116 920 c-34 -11 -82 -54 -102 -92 -18 -35 -17 -126 1 -158 14 -24 14 -23 15 27 0 88 29 137 104 175 32 16 52 19 98 15 32 -3 58 -3 58 -1 0 3 -19 14 -42 24 -46 21 -85 24 -132 10z"/>
<path d="M2662 909 c-81 -40 -122 -143 -89 -219 l15 -35 2 40 c2 57 21 101 59 140 43 44 89 59 157 51 30 -3 54 -4 54 -1 0 12 -87 45 -120 45 -19 0 -54 -10 -78 -21z"/>
<path d="M1400 869 c-126 -51 -177 -208 -104 -326 33 -53 109 -99 178 -107 44 -5 122 20 156 51 20 20 64 93 58 97 -2 2 -18 8 -36 16 -75 30 -112 134 -79 219 l16 39 -31 11 c-38 13 -124 13 -158 0z"/>
<path d="M1639 841 c-34 -34 -39 -45 -39 -84 0 -44 16 -97 29 -97 3 0 5 20 3 45 -7 85 34 138 117 151 53 8 35 24 -28 24 -37 0 -49 -5 -82 -39z"/>
<path d="M148 814 c-83 -45 -77 -179 10 -223 61 -30 120 -9 165 61 26 40 26 40 9 86 -30 80 -114 115 -184 76z"/>
<path d="M2712 810 c-90 -55 -71 -191 31 -228 49 -18 96 3 136 59 36 49 37 60 11 114 -35 72 -111 96 -178 55z"/>
<path d="M1695 784 c-51 -55 -19 -139 57 -151 32 -5 41 -1 68 25 22 22 30 40 30 65 0 78 -102 118 -155 61z"/>
<path d="M2445 645 c-38 -30 -121 -85 -182 -122 l-113 -67 -1 -100 c-1 -56 -3 -111 -4 -123 -2 -19 7 -17 105 33 110 56 318 188 380 243 32 28 34 32 17 42 -42 25 -87 73 -103 110 -10 21 -20 39 -23 38 -3 0 -37 -25 -76 -54z"/>
<path d="M362 645 c-15 -32 -36 -54 -67 -73 -24 -15 -44 -31 -45 -37 0 -14 198 -154 314 -220 178 -103 377 -179 574 -220 115 -24 110 -26 104 53 -3 48 0 78 12 106 9 22 15 40 14 41 -2 1 -37 7 -78 14 -217 37 -547 191 -751 352 -20 16 -41 29 -46 29 -5 0 -19 -20 -31 -45z"/>
<path d="M1367 329 c-55 -29 -90 -87 -90 -152 -1 -30 6 -65 15 -82 l16 -30 0 56 c-1 110 74 189 180 189 28 0 63 -5 79 -10 27 -10 27 -9 8 6 -58 47 -144 57 -208 23z"/>
<path d="M1411 224 c-44 -37 -58 -94 -34 -142 21 -43 75 -82 113 -82 36 0 104 50 120 89 17 43 0 101 -41 135 -43 36 -115 36 -158 0z"/>
</g>
<g id="layer106" fill="#0060a2" stroke="none">
<path d="M1364 1481 c-62 -38 -102 -118 -88 -178 14 -66 18 -67 25 -10 13 114 84 177 201 177 60 1 62 1 38 15 -37 21 -138 19 -176 -4z"/>
<path d="M1421 1364 c-88 -74 -16 -212 98 -188 20 4 40 6 46 5 5 -2 7 1 2 5 -4 4 0 15 9 25 9 10 19 38 21 63 5 42 3 48 -30 81 -45 45 -99 49 -146 9z"/>
<path d="M750 1276 c-115 -51 -264 -137 -385 -224 -120 -86 -125 -91 -101 -105 43 -26 94 -79 107 -110 7 -17 14 -34 15 -36 2 -2 34 19 71 47 152 111 322 206 481 268 39 15 72 32 72 36 0 12 -86 103 -130 138 l-35 28 -95 -42z"/>
<path d="M1353 1042 c-129 -46 -201 -137 -218 -273 -8 -65 9 -91 20 -31 17 93 93 184 194 230 103 48 263 30 330 -37 15 -15 21 -17 21 -7 0 20 -76 85 -126 107 -65 29 -158 34 -221 11z"/>
<path d="M116 920 c-34 -11 -82 -54 -102 -92 -16 -31 -19 -125 -4 -148 7 -11 10 -5 10 25 1 115 106 204 225 190 l40 -5 -40 20 c-42 21 -82 24 -129 10z"/>
<path d="M2662 909 c-72 -36 -112 -116 -98 -194 9 -45 26 -45 26 0 0 112 114 201 226 177 24 -5 44 -8 44 -5 0 2 -19 13 -42 23 -56 25 -103 25 -156 -1z"/>
<path d="M1639 841 c-35 -34 -39 -44 -39 -87 1 -27 7 -60 15 -74 14 -24 14 -23 9 20 -9 82 56 160 135 160 27 0 32 3 21 10 -8 5 -35 10 -59 10 -37 0 -49 -5 -82 -39z"/>
<path d="M1395 833 c-75 -39 -111 -107 -103 -193 17 -169 239 -232 342 -97 33 43 32 48 -6 72 -17 11 -39 36 -50 55 -20 38 -24 110 -8 141 9 16 7 21 -15 29 -39 15 -126 11 -160 -7z"/>
<path d="M186 809 c-69 -19 -101 -88 -71 -152 24 -51 73 -72 132 -55 21 7 41 11 46 10 4 -1 6 1 5 6 -1 4 4 20 10 35 38 91 -32 181 -122 156z"/>
<path d="M2743 808 c-73 -19 -99 -124 -44 -179 16 -16 40 -30 53 -30 72 -4 86 -3 82 2 -2 4 3 10 12 13 23 9 47 74 40 111 -12 60 -80 100 -143 83z"/>
<path d="M2500 686 c-27 -26 -199 -146 -209 -146 -5 0 -13 -5 -17 -12 -4 -7 -3 -8 4 -4 9 5 12 -25 12 -114 0 -100 2 -121 14 -117 29 11 199 120 276 177 72 54 95 80 72 80 -20 0 -92 74 -108 110 -20 44 -23 46 -44 26z"/>
<path d="M362 645 c-15 -32 -36 -54 -67 -73 -24 -15 -44 -31 -45 -37 0 -5 49 -44 108 -87 253 -180 490 -289 759 -348 89 -19 102 -17 103 18 0 6 5 12 11 12 6 0 9 12 8 28 -3 36 10 110 22 118 21 13 5 21 -68 33 -218 35 -549 190 -754 352 -20 16 -41 29 -46 29 -5 0 -19 -20 -31 -45z"/>
<path d="M1367 329 c-55 -29 -90 -87 -90 -152 -1 -28 4 -61 11 -72 10 -18 11 -15 12 23 0 58 20 101 63 139 45 39 97 57 153 50 53 -6 55 -1 9 19 -47 19 -113 17 -158 -7z"/>
</g>
<g id="layer107" fill="#03669a" stroke="none">
<path d="M1421 1364 c-62 -52 -48 -150 26 -180 75 -32 141 8 150 90 5 42 3 48 -30 81 -45 45 -99 49 -146 9z"/>
<path d="M849 1292 c12 -22 41 -48 41 -36 0 14 62 -50 71 -73 10 -26 49 -51 49 -31 0 15 -144 158 -160 158 -7 0 -8 -6 -1 -18z"/>
<path d="M695 1251 c-107 -49 -381 -224 -435 -278 -13 -13 -13 -16 4 -26 43 -26 94 -79 107 -110 7 -17 14 -34 15 -36 2 -2 34 19 71 47 136 100 321 207 427 247 l50 19 -84 78 c-46 43 -91 78 -100 78 -8 0 -33 -9 -55 -19z"/>
<path d="M1395 833 c-75 -39 -111 -107 -103 -193 17 -170 239 -232 343 -95 l27 35 -45 44 c-51 49 -63 87 -53 165 6 45 5 49 -16 55 -42 11 -123 5 -153 -11z"/>
<path d="M186 809 c-69 -19 -101 -88 -71 -152 19 -41 53 -61 102 -60 95 3 138 122 67 188 -29 27 -59 34 -98 24z"/>
<path d="M2743 808 c-66 -17 -97 -115 -53 -171 48 -61 150 -52 184 16 43 89 -34 181 -131 155z"/>
<path d="M1705 775 c-31 -31 -32 -66 -1 -101 18 -22 32 -28 59 -27 50 1 72 21 76 65 6 76 -81 117 -134 63z"/>
<path d="M2480 669 c-19 -17 -70 -54 -112 -82 l-78 -52 0 -122 c0 -68 4 -123 8 -123 4 0 22 10 39 23 17 12 40 28 50 35 17 12 19 25 16 110 -2 53 -4 106 -6 116 -1 10 4 21 11 23 9 4 12 -23 13 -109 1 -62 1 -117 0 -121 -2 -10 163 103 211 144 31 27 32 30 14 40 -43 26 -96 83 -106 115 -6 19 -15 34 -18 34 -4 -1 -23 -14 -42 -31z"/>
<path d="M362 645 c-15 -32 -36 -54 -67 -73 -24 -15 -44 -31 -45 -37 0 -14 198 -154 314 -220 55 -32 150 -79 213 -106 126 -54 331 -115 343 -102 8 9 38 133 42 176 3 28 0 30 -67 47 -201 51 -480 193 -656 331 -20 16 -41 29 -46 29 -5 0 -19 -20 -31 -45z"/>
<path d="M1236 267 c3 -11 2 -17 -3 -14 -8 5 -10 -19 -3 -43 1 -4 28 65 30 76 0 0 -7 1 -15 1 -11 0 -13 -6 -9 -20z"/>
<path d="M1434 221 c-118 -72 -17 -248 109 -190 72 33 75 146 5 189 -41 25 -74 25 -114 1z"/>
<path d="M1215 185 c1 -14 -2 -28 -7 -31 -4 -3 -6 -9 -3 -14 3 -5 1 -19 -5 -30 -8 -15 -8 -20 1 -20 6 0 13 9 16 20 3 11 9 20 13 20 9 0 7 26 -2 36 -4 3 -4 12 -2 19 3 7 1 16 -4 19 -6 4 -9 -5 -7 -19z"/>
</g>
<g id="layer108" fill="#0373ae" stroke="none">
<path d="M1364 1481 c-66 -40 -101 -117 -86 -187 l8 -39 8 46 c16 106 99 179 202 179 35 0 45 3 34 10 -27 17 -132 12 -166 -9z"/>
<path d="M1436 1359 c-38 -30 -49 -64 -36 -105 14 -42 44 -64 88 -64 44 0 68 14 88 51 20 40 11 82 -28 114 -36 31 -76 32 -112 4z"/>
<path d="M655 1229 c-110 -56 -184 -102 -290 -177 -120 -85 -125 -91 -101 -105 43 -26 94 -79 107 -110 7 -17 14 -34 15 -36 2 -2 34 19 71 47 133 97 342 219 432 250 17 6 31 15 31 21 0 15 -153 151 -170 151 -8 0 -51 -18 -95 -41z"/>
<path d="M1353 1042 c-131 -47 -203 -139 -217 -277 l-6 -60 13 40 c38 112 99 185 195 232 76 37 200 40 276 5 27 -12 51 -20 53 -18 7 7 -60 54 -101 71 -61 26 -153 29 -213 7z"/>
<path d="M116 920 c-34 -11 -82 -54 -102 -92 -8 -15 -14 -53 -13 -85 l1 -58 12 45 c31 111 85 159 189 169 l62 6 -34 13 c-39 14 -73 14 -115 2z"/>
<path d="M2662 909 c-25 -13 -55 -39 -69 -60 -29 -43 -41 -117 -24 -145 9 -17 10 -16 11 9 1 100 93 186 202 188 l53 1 -30 13 c-44 20 -94 18 -143 -6z"/>
<path d="M1639 841 c-35 -34 -39 -44 -39 -87 0 -27 5 -56 10 -64 7 -11 10 -2 10 31 0 66 32 108 100 136 l55 22 -49 1 c-43 0 -53 -4 -87 -39z"/>
<path d="M1420 819 c-38 -15 -88 -68 -101 -107 -34 -103 53 -222 163 -222 46 0 114 36 138 74 l20 33 -35 37 c-36 39 -50 83 -43 140 3 29 0 37 -20 45 -28 13 -88 13 -122 0z"/>
<path d="M164 788 c-53 -25 -62 -107 -18 -152 48 -48 127 -31 154 33 34 83 -53 160 -136 119z"/>
<path d="M2713 776 c-23 -20 -28 -32 -28 -71 0 -39 5 -51 28 -71 38 -32 86 -32 126 2 26 21 31 33 31 69 0 36 -5 48 -31 69 -40 34 -88 34 -126 2z"/>
<path d="M1710 770 c-51 -51 7 -136 74 -110 70 26 50 130 -25 130 -16 0 -38 -9 -49 -20z"/>
<path d="M2465 657 l-50 -41 3 -116 c2 -63 7 -119 11 -123 8 -8 213 132 227 154 4 7 -1 16 -11 22 -40 22 -95 81 -105 113 -6 19 -15 34 -18 33 -4 0 -29 -19 -57 -42z"/>
<path d="M362 645 c-15 -32 -36 -54 -67 -73 -24 -15 -44 -31 -45 -37 0 -14 198 -154 314 -220 167 -96 420 -195 530 -207 28 -3 30 -1 46 62 9 36 19 82 23 103 6 36 5 37 -36 47 -216 55 -509 200 -688 341 -20 16 -41 29 -46 29 -5 0 -19 -20 -31 -45z"/>
<path d="M1367 329 c-66 -35 -108 -127 -88 -194 7 -21 10 -24 10 -10 3 70 53 150 111 180 15 8 51 17 81 21 40 5 48 9 34 15 -37 14 -109 9 -148 -12z"/>
<path d="M1452 215 c-37 -16 -66 -71 -56 -109 8 -35 46 -66 86 -72 65 -11 123 65 99 129 -19 49 -79 73 -129 52z"/>
</g>
<g id="layer109" fill="#007dc4" stroke="none">
<path d="M1364 1481 c-42 -25 -72 -66 -85 -113 -17 -66 0 -82 22 -21 25 64 83 119 136 128 82 14 91 23 23 24 -47 1 -74 -4 -96 -18z"/>
<path d="M585 1193 c-129 -73 -335 -216 -335 -234 0 -5 13 -15 29 -23 36 -19 89 -79 97 -111 3 -14 9 -25 11 -25 3 0 35 22 72 49 92 68 192 131 289 181 45 24 82 49 82 56 0 13 -145 134 -161 134 -6 0 -7 5 -4 10 8 13 12 15 -80 -37z"/>
<path d="M1353 1042 c-98 -35 -159 -93 -198 -184 -8 -21 -15 -48 -15 -60 1 -18 7 -11 26 25 74 142 239 221 386 184 35 -8 72 -18 83 -22 l20 -7 -20 17 c-67 57 -195 78 -282 47z"/>
<path d="M116 920 c-34 -11 -82 -54 -102 -92 -8 -15 -14 -49 -14 -75 l1 -48 19 55 c30 88 109 148 200 151 23 0 23 1 5 9 -25 11 -72 11 -109 0z"/>
<path d="M2662 909 c-58 -29 -94 -84 -99 -152 -3 -38 -2 -48 6 -37 6 8 11 22 11 31 0 8 13 36 29 62 34 53 87 84 158 94 36 5 43 8 28 14 -37 14 -90 9 -133 -12z"/>
<path d="M1639 841 c-36 -36 -39 -43 -38 -92 l1 -54 13 49 c17 61 56 103 115 121 l45 14 -49 0 c-43 1 -52 -3 -87 -38z"/>
<path d="M362 645 c-15 -32 -36 -54 -67 -73 -24 -15 -44 -31 -45 -37 0 -14 198 -154 314 -220 117 -68 298 -147 398 -175 40 -11 73 -19 74 -17 1 1 12 42 23 92 12 50 24 95 26 101 2 7 -34 25 -88 44 -179 61 -418 190 -558 301 -20 16 -41 29 -46 29 -5 0 -19 -20 -31 -45z"/>
<path d="M2555 541 c0 -58 4 -87 10 -82 50 36 95 74 95 80 0 4 -15 15 -32 26 -18 10 -42 29 -53 41 l-20 23 0 -88z"/>
<path d="M1367 329 c-45 -24 -83 -79 -92 -135 -8 -50 10 -69 19 -20 16 82 107 155 197 157 34 0 39 2 24 9 -35 15 -108 10 -148 -11z"/>
</g>
<g id="layer110" fill="#0887ba" stroke="none">
<path d="M1453 1360 c-48 -20 -60 -95 -22 -136 51 -54 143 -14 143 61 0 59 -64 99 -121 75z"/>
<path d="M544 1168 c-81 -43 -294 -194 -294 -209 0 -5 13 -15 29 -23 36 -19 89 -79 97 -111 3 -14 9 -25 11 -25 3 0 35 22 72 49 87 64 194 132 259 165 l53 27 -53 45 c-29 25 -71 59 -94 74 l-41 29 -39 -21z"/>
<path d="M1353 1042 c-90 -32 -146 -80 -185 -157 -34 -66 -29 -79 9 -25 91 128 222 182 388 158 l50 -7 -42 20 c-63 29 -156 34 -220 11z"/>
<path d="M1414 796 c-106 -46 -110 -203 -7 -263 72 -42 163 -20 202 49 13 23 12 28 -14 62 -20 26 -29 52 -33 89 -2 31 -11 57 -20 65 -21 16 -89 15 -128 -2z"/>
<path d="M155 765 c-36 -35 -35 -96 1 -124 57 -45 138 -8 138 64 0 74 -88 112 -139 60z"/>
<path d="M2719 761 c-17 -18 -29 -40 -29 -56 0 -38 50 -85 90 -85 44 0 80 39 80 85 0 79 -84 112 -141 56z"/>
<path d="M1716 764 c-36 -36 -6 -104 46 -104 25 0 58 36 58 63 0 49 -70 76 -104 41z"/>
<path d="M362 645 c-15 -32 -36 -54 -67 -73 -24 -15 -44 -31 -45 -37 0 -26 320 -233 460 -297 63 -29 235 -98 244 -98 4 0 41 136 50 188 4 22 2 32 -7 32 -17 0 -156 59 -252 108 -81 40 -240 141 -306 193 -20 16 -41 29 -46 29 -5 0 -19 -20 -31 -45z"/>
<path d="M1431 186 c-41 -44 -27 -113 29 -136 64 -26 133 37 111 102 -14 40 -38 57 -82 58 -25 0 -42 -7 -58 -24z"/>
</g>
<g id="layer111" fill="#0191ce" stroke="none">
<path d="M1364 1481 c-42 -25 -72 -66 -85 -113 -17 -64 -5 -65 27 -2 36 72 86 110 164 123 l55 9 -65 1 c-48 1 -73 -4 -96 -18z"/>
<path d="M1470 1353 c-51 -19 -68 -85 -30 -123 45 -45 120 -11 120 53 0 47 -49 85 -90 70z"/>
<path d="M521 1154 c-62 -35 -233 -153 -261 -181 -13 -13 -13 -16 4 -26 43 -26 94 -79 107 -110 7 -17 14 -34 15 -36 2 -2 34 19 71 47 89 65 195 133 261 166 l53 27 -53 45 c-29 25 -71 59 -94 74 l-41 29 -62 -35z"/>
<path d="M1353 1042 c-90 -32 -146 -80 -185 -157 -33 -64 -29 -80 6 -29 85 125 231 190 366 164 65 -12 76 -6 26 15 -61 26 -153 29 -213 7z"/>
<path d="M116 920 c-60 -18 -117 -93 -115 -152 l1 -33 11 33 c27 73 110 141 175 142 12 0 22 5 22 10 0 12 -53 12 -94 0z"/>
<path d="M2662 909 c-53 -27 -92 -82 -99 -141 l-4 -43 30 61 c34 68 86 111 145 121 20 3 39 10 42 14 11 18 -72 8 -114 -12z"/>
<path d="M1639 841 c-36 -36 -39 -43 -38 -92 l1 -54 9 43 c11 58 44 101 93 123 l41 19 -34 0 c-26 0 -42 -9 -72 -39z"/>
<path d="M1414 771 c-33 -20 -64 -75 -64 -113 0 -59 69 -128 128 -128 40 0 91 28 111 61 20 32 20 33 -1 62 -11 16 -23 49 -26 74 -4 36 -10 46 -29 54 -38 14 -85 11 -119 -10z"/>
<path d="M166 759 c-52 -41 -19 -129 48 -129 34 0 66 36 66 73 0 38 -7 50 -37 66 -31 16 -47 14 -77 -10z"/>
<path d="M1732 764 c-43 -30 -21 -94 32 -94 22 0 46 28 46 55 0 20 -32 55 -50 55 -3 0 -16 -7 -28 -16z"/>
<path d="M2743 768 c-35 -17 -48 -60 -29 -96 24 -47 66 -55 110 -21 34 27 35 71 1 104 -26 27 -47 30 -82 13z"/>
<path d="M362 645 c-15 -32 -36 -54 -67 -73 -24 -15 -44 -31 -45 -37 0 -26 320 -233 460 -297 63 -29 235 -98 244 -98 5 0 44 147 48 183 3 27 -1 30 -97 71 -176 75 -345 172 -466 267 -20 16 -41 29 -46 29 -5 0 -19 -20 -31 -45z"/>
<path d="M1367 329 c-46 -24 -83 -80 -92 -139 l-6 -45 32 63 c24 49 42 70 77 93 25 16 55 29 66 30 12 0 30 4 41 9 15 6 7 9 -30 9 -31 0 -64 -7 -88 -20z"/>
<path d="M1440 180 c-26 -26 -26 -81 0 -105 46 -42 120 -10 120 52 0 42 -30 73 -70 73 -17 0 -39 -9 -50 -20z"/>
</g>
<g id="layer112" fill="#009fe3" stroke="none">
<path d="M1364 1481 c-42 -25 -72 -66 -85 -113 -6 -22 -9 -42 -7 -43 2 -2 16 21 32 51 31 58 62 86 123 109 l38 14 -35 0 c-19 1 -49 -8 -66 -18z"/>
<path d="M445 1108 c-112 -77 -195 -140 -195 -149 0 -5 13 -15 29 -23 36 -19 89 -79 97 -111 3 -14 8 -25 11 -25 2 0 45 29 95 65 50 36 115 80 144 98 30 17 54 35 54 39 0 9 -113 94 -153 114 -15 8 -25 19 -22 24 9 15 4 13 -60 -32z"/>
<path d="M1353 1041 c-72 -24 -127 -65 -163 -119 -44 -66 -37 -72 16 -13 29 32 69 62 112 83 57 28 80 34 162 38 l95 5 -53 13 c-71 16 -107 15 -169 -7z"/>
<path d="M116 920 c-51 -16 -116 -92 -116 -136 0 -11 12 1 29 27 31 50 76 83 143 103 l43 14 -35 0 c-19 0 -48 -4 -64 -8z"/>
<path d="M2662 909 c-51 -26 -91 -80 -98 -135 l-6 -39 25 51 c30 62 79 103 149 126 l53 17 -40 0 c-22 1 -59 -9 -83 -20z"/>
<path d="M1639 841 c-32 -32 -39 -45 -39 -77 l1 -39 13 38 c16 45 39 73 81 98 29 18 29 19 6 19 -14 0 -39 -16 -62 -39z"/>
<path d="M1403 735 c-33 -33 -35 -39 -30 -82 7 -63 49 -103 109 -103 35 0 47 6 79 40 l39 41 -20 37 c-11 20 -20 46 -20 58 0 25 -37 44 -86 44 -28 0 -44 -8 -71 -35z"/>
<path d="M362 645 c-15 -32 -36 -54 -67 -73 -24 -15 -44 -31 -45 -37 0 -14 198 -153 312 -219 99 -57 231 -119 281 -131 15 -4 30 -11 33 -16 3 -5 11 -9 17 -9 8 0 7 3 -2 9 -11 7 -11 15 -2 43 13 41 41 181 34 174 -2 -2 -62 24 -131 59 -120 59 -273 153 -353 216 -20 16 -41 29 -46 29 -5 0 -19 -20 -31 -45z"/>
<path d="M1367 329 c-47 -25 -84 -81 -91 -139 -4 -31 -3 -37 3 -20 26 80 74 131 147 160 l49 19 -35 0 c-19 0 -52 -9 -73 -20z"/>
</g>
<g id="layer113" fill="#10a7da" stroke="none">
<path d="M1359 1477 c-38 -25 -79 -82 -78 -106 0 -13 2 -13 12 3 30 47 63 79 106 101 40 21 43 24 20 25 -14 0 -41 -10 -60 -23z"/>
<path d="M1470 1343 c-41 -14 -54 -78 -22 -106 42 -38 102 -8 102 50 0 41 -41 70 -80 56z"/>
<path d="M370 1052 c-24 -9 -120 -84 -120 -93 0 -5 13 -15 29 -23 36 -19 89 -79 97 -111 3 -14 9 -25 12 -25 3 0 28 17 56 39 28 21 76 55 106 75 30 20 49 36 42 36 -6 0 -33 15 -59 34 -79 56 -135 79 -163 68z"/>
<path d="M116 920 c-34 -11 -82 -54 -103 -93 -22 -43 -10 -56 14 -15 28 47 84 89 141 104 45 12 46 13 12 12 -19 0 -48 -4 -64 -8z"/>
<path d="M2662 909 c-47 -23 -87 -75 -97 -124 -6 -30 -6 -30 14 5 28 52 70 90 126 116 40 18 45 23 25 23 -14 1 -44 -9 -68 -20z"/>
<path d="M1639 841 c-28 -28 -39 -47 -38 -67 l1 -29 13 31 c8 18 33 48 56 68 31 26 37 36 25 36 -10 0 -36 -17 -57 -39z"/>
<path d="M172 754 c-46 -32 -18 -114 39 -114 54 0 81 78 39 112 -27 22 -49 23 -78 2z"/>
<path d="M1403 735 c-33 -33 -35 -39 -30 -82 7 -63 49 -103 109 -103 35 0 47 6 79 40 l37 39 -19 38 c-10 20 -19 47 -19 59 0 25 -36 44 -86 44 -28 0 -44 -8 -71 -35z"/>
<path d="M1725 750 c-15 -17 -16 -24 -7 -45 16 -34 69 -36 81 -2 19 48 -39 86 -74 47z"/>
<path d="M2735 745 c-14 -13 -25 -30 -25 -38 0 -26 41 -67 66 -67 31 0 64 33 64 65 0 30 -32 65 -60 65 -12 0 -32 -11 -45 -25z"/>
<path d="M1368 329 c-40 -21 -88 -82 -88 -113 0 -13 7 -8 26 20 32 48 57 70 109 94 34 16 36 19 15 19 -14 0 -42 -9 -62 -20z"/>
<path d="M1447 172 c-47 -52 9 -129 71 -100 34 16 43 70 16 99 -22 24 -66 24 -87 1z"/>
</g>
<g id="layer114" fill="#05aee9" stroke="none">
<path d="M1359 1477 c-37 -25 -79 -81 -79 -106 0 -10 5 -8 17 9 32 49 69 83 108 101 36 17 37 19 14 19 -14 0 -41 -10 -60 -23z"/>
<path d="M370 1052 c-24 -9 -120 -84 -120 -93 0 -5 13 -15 29 -23 36 -19 89 -79 97 -111 7 -30 12 -30 44 -4 14 11 58 43 99 70 l73 51 -48 35 c-83 59 -146 86 -174 75z"/>
<path d="M1353 1041 c-82 -28 -139 -73 -178 -141 -5 -8 11 3 36 25 85 77 172 114 278 116 47 1 51 3 26 9 -51 13 -108 10 -162 -9z"/>
<path d="M116 920 c-34 -11 -82 -54 -102 -92 -25 -48 -15 -54 15 -9 34 51 75 80 140 97 45 12 45 13 11 12 -19 0 -48 -4 -64 -8z"/>
<path d="M2662 909 c-47 -23 -87 -75 -97 -124 -5 -25 -1 -22 19 17 29 53 74 91 132 112 32 12 35 15 14 15 -14 1 -44 -9 -68 -20z"/>
<path d="M1639 841 c-24 -24 -39 -48 -39 -62 1 -22 2 -22 14 6 14 31 46 64 81 83 19 11 19 11 1 12 -10 0 -36 -17 -57 -39z"/>
<path d="M1416 724 c-35 -35 -35 -82 0 -123 44 -52 123 -40 149 23 18 43 2 99 -32 115 -42 19 -88 13 -117 -15z"/>
<path d="M362 645 c-15 -32 -36 -54 -67 -73 -24 -15 -44 -31 -45 -37 0 -14 198 -153 313 -220 106 -61 187 -98 195 -90 3 2 11 -3 19 -13 11 -15 12 -15 7 -1 -3 10 0 37 7 60 6 24 15 70 18 102 l8 59 -76 38 c-78 39 -237 140 -302 191 -20 16 -41 29 -46 29 -5 0 -19 -20 -31 -45z"/>
<path d="M1368 329 c-41 -21 -88 -83 -88 -114 1 -16 4 -14 17 10 25 49 55 76 108 101 39 18 45 23 25 23 -14 0 -42 -9 -62 -20z"/>
</g>
<g id="layer115" fill="#2ebbed" stroke="none">
<path d="M1359 1477 c-33 -22 -79 -80 -79 -100 0 -6 12 6 28 26 28 38 52 58 100 83 24 12 24 14 6 14 -12 0 -36 -10 -55 -23z"/>
<path d="M1462 1324 c-37 -26 -20 -94 24 -94 53 0 75 64 32 94 -12 9 -25 16 -28 16 -3 0 -16 -7 -28 -16z"/>
<path d="M1359 1044 c-51 -15 -140 -72 -147 -94 -3 -7 11 -1 30 13 46 36 114 65 190 81 63 14 63 14 18 14 -25 0 -66 -6 -91 -14z"/>
<path d="M116 920 c-34 -11 -82 -54 -102 -92 -23 -44 -16 -43 19 3 18 25 55 55 86 71 53 28 52 34 -3 18z"/>
<path d="M334 890 c19 -22 38 -51 42 -65 8 -31 9 -31 52 2 33 25 34 27 16 40 -32 24 -112 63 -130 63 -12 0 -7 -11 20 -40z"/>
<path d="M2662 909 c-24 -12 -54 -38 -68 -58 -36 -53 -29 -61 12 -12 20 23 57 53 83 66 57 30 33 33 -27 4z"/>
<path d="M1639 841 c-24 -24 -39 -48 -39 -62 1 -22 2 -22 14 6 7 17 30 45 50 63 20 17 32 32 25 32 -6 0 -29 -17 -50 -39z"/>
<path d="M177 742 c-23 -25 -21 -55 3 -77 31 -28 74 -10 78 31 5 55 -47 84 -81 46z"/>
<path d="M1730 745 c-20 -24 -3 -55 30 -55 20 0 31 6 35 20 8 25 -10 50 -35 50 -10 0 -23 -7 -30 -15z"/>
<path d="M2746 747 c-38 -28 -13 -97 34 -97 23 0 50 32 50 58 0 20 -34 52 -55 52 -6 0 -19 -6 -29 -13z"/>
<path d="M1416 724 c-35 -35 -35 -82 0 -123 44 -52 123 -40 149 23 17 41 1 100 -33 115 -41 19 -87 13 -116 -15z"/>
<path d="M362 645 c-15 -32 -36 -54 -67 -73 -24 -15 -44 -31 -45 -37 0 -14 196 -152 302 -213 l87 -51 11 37 c6 20 13 73 16 117 l6 80 -63 40 c-35 22 -97 64 -137 93 -40 28 -77 52 -81 52 -4 0 -17 -20 -29 -45z"/>
<path d="M1368 329 c-21 -10 -49 -36 -63 -56 -35 -53 -31 -65 7 -19 17 21 52 52 77 67 51 33 36 38 -21 8z"/>
<path d="M1458 169 c-21 -12 -24 -59 -6 -77 15 -15 61 -15 76 0 7 7 12 24 12 38 0 45 -40 64 -82 39z"/>
</g>
<g id="layer116" fill="#40c0ef" stroke="none">
<path d="M1455 1306 c-23 -34 -5 -66 36 -66 41 0 61 40 34 70 -24 27 -51 25 -70 -4z"/>
<path d="M367 843 c10 -21 18 -39 19 -41 3 -6 44 22 44 30 0 4 -18 17 -40 28 l-40 20 17 -37z"/>
<path d="M1742 751 c-8 -4 -12 -19 -10 -32 2 -18 9 -24 28 -24 28 0 39 27 20 50 -14 17 -20 18 -38 6z"/>
<path d="M176 728 c-13 -19 -14 -25 -2 -43 18 -27 56 -32 73 -9 17 23 16 39 -3 58 -22 22 -50 20 -68 -6z"/>
<path d="M2739 729 c-16 -30 3 -69 34 -69 29 0 47 17 47 45 0 45 -60 63 -81 24z"/>
<path d="M1425 715 c-50 -49 -15 -135 55 -135 72 0 109 96 54 139 -36 28 -79 27 -109 -4z"/>
<path d="M362 645 c-15 -32 -36 -54 -67 -73 -24 -15 -44 -31 -45 -37 0 -13 192 -150 285 -204 85 -49 87 -48 93 95 l5 102 -44 28 c-24 15 -77 51 -116 81 -40 29 -76 53 -81 53 -4 0 -18 -20 -30 -45z"/>
<path d="M1450 149 c-9 -16 -8 -26 5 -45 19 -29 46 -31 70 -4 15 17 16 24 7 45 -15 32 -66 35 -82 4z"/>
</g>
<g id="layer117" fill="#51c4f1" stroke="none">
<path d="M1466 1317 c-38 -27 2 -95 42 -71 24 16 28 55 6 71 -10 7 -21 13 -24 13 -3 0 -14 -6 -24 -13z"/>
<path d="M377 820 c6 -22 18 -26 29 -9 3 6 0 15 -7 20 -22 14 -28 11 -22 -11z"/>
<path d="M180 736 c-28 -35 11 -93 48 -70 35 22 22 84 -18 84 -10 0 -23 -7 -30 -14z"/>
<path d="M1737 743 c-13 -12 -7 -41 10 -47 21 -8 48 17 40 38 -6 16 -38 22 -50 9z"/>
<path d="M2746 728 c-13 -19 -14 -25 -2 -43 7 -11 21 -21 30 -23 42 -9 64 58 27 78 -28 15 -38 13 -55 -12z"/>
<path d="M1436 719 c-20 -16 -26 -29 -26 -58 0 -72 79 -102 127 -47 36 43 27 87 -24 114 -31 17 -47 15 -77 -9z"/>
<path d="M362 645 c-15 -32 -36 -54 -67 -73 -24 -15 -45 -31 -45 -37 0 -11 209 -161 287 -205 63 -36 65 -34 69 106 l4 102 -106 76 c-58 42 -109 76 -113 76 -4 0 -17 -20 -29 -45z"/>
<path d="M1460 156 c-6 -8 -10 -25 -8 -38 2 -19 9 -23 38 -23 29 0 36 4 38 23 4 28 -14 52 -38 52 -10 0 -23 -7 -30 -14z"/>
</g>
<g id="layer118" fill="#71ccf4" stroke="none">
<path d="M1462 1308 c-32 -32 8 -80 48 -58 34 18 19 70 -20 70 -9 0 -21 -5 -28 -12z"/>
<path d="M1734 735 c-8 -20 4 -35 26 -35 23 0 32 13 24 34 -8 20 -43 21 -50 1z"/>
<path d="M181 726 c-7 -8 -10 -24 -6 -36 5 -17 13 -20 38 -18 28 3 32 7 32 33 0 25 -4 31 -26 33 -14 2 -31 -4 -38 -12z"/>
<path d="M2744 726 c-12 -31 0 -51 30 -51 36 0 56 26 37 49 -17 20 -60 21 -67 2z"/>
<path d="M1431 704 c-12 -15 -21 -35 -21 -46 0 -26 44 -68 73 -68 31 0 67 39 67 73 0 63 -80 90 -119 41z"/>
<path d="M362 645 c-15 -32 -36 -54 -67 -73 -24 -15 -44 -31 -45 -37 0 -11 192 -151 262 -190 l45 -25 7 31 c7 38 6 153 -3 194 -4 21 -26 45 -81 87 -41 31 -80 57 -86 57 -5 1 -20 -19 -32 -44z"/>
<path d="M1460 155 c-26 -32 13 -81 48 -59 9 6 18 19 20 28 8 38 -43 61 -68 31z"/>
</g>
<g id="layer119" fill="#90d4f6" stroke="none">
<path d="M1472 1311 c-8 -4 -12 -19 -10 -32 2 -18 9 -24 28 -24 19 0 26 6 28 24 3 20 -11 41 -28 41 -3 0 -11 -4 -18 -9z"/>
<path d="M1743 739 c-16 -16 -5 -39 19 -39 14 0 19 6 16 22 -4 25 -19 33 -35 17z"/>
<path d="M184 726 c-10 -25 0 -51 20 -54 27 -6 48 25 35 49 -12 22 -47 25 -55 5z"/>
<path d="M2752 728 c-16 -16 -15 -33 3 -48 21 -18 55 -3 55 25 0 32 -35 46 -58 23z"/>
<path d="M1436 698 c-21 -30 -20 -54 4 -78 39 -39 100 -14 100 42 0 53 -74 79 -104 36z"/>
<path d="M362 645 c-15 -32 -36 -54 -67 -73 -24 -15 -45 -31 -45 -37 0 -9 226 -175 249 -183 14 -5 24 81 16 135 -12 80 -43 149 -80 177 -18 14 -38 26 -42 26 -5 0 -19 -20 -31 -45z"/>
<path d="M1467 154 c-23 -23 7 -69 37 -58 25 10 17 58 -9 62 -12 2 -24 0 -28 -4z"/>
</g>
<g id="layer120" fill="#aaddf8" stroke="none">
<path d="M1466 1293 c-4 -9 0 -23 9 -32 13 -14 17 -14 31 1 9 9 14 24 11 32 -8 21 -43 20 -51 -1z"/>
<path d="M1742 723 c2 -10 10 -18 18 -18 8 0 16 8 18 18 2 12 -3 17 -18 17 -15 0 -20 -5 -18 -17z"/>
<path d="M184 715 c-4 -9 -2 -21 4 -27 16 -16 47 -5 47 17 0 26 -42 34 -51 10z"/>
<path d="M2754 715 c-8 -19 3 -35 26 -35 19 0 30 17 23 38 -6 17 -42 15 -49 -3z"/>
<path d="M1447 692 c-22 -24 -21 -45 1 -65 35 -32 82 -10 82 38 0 42 -54 59 -83 27z"/>
<path d="M348 620 c-9 -15 -34 -39 -57 -52 -22 -12 -41 -27 -41 -33 0 -12 163 -128 187 -134 39 -8 -13 198 -60 237 -9 8 -17 3 -29 -18z"/>
<path d="M1471 146 c-15 -18 -3 -46 20 -46 25 0 35 26 19 45 -15 19 -24 19 -39 1z"/>
</g>
<g id="layer121" fill="#bae3fa" stroke="none">
<path d="M1474 1296 c-7 -19 3 -36 22 -36 10 0 14 8 12 22 -4 26 -26 36 -34 14z"/>
<path d="M1745 729 c-10 -15 1 -23 20 -15 9 3 13 10 10 16 -8 13 -22 13 -30 -1z"/>
<path d="M193 714 c-8 -21 13 -42 28 -27 13 13 5 43 -11 43 -6 0 -13 -7 -17 -16z"/>
<path d="M2761 716 c-9 -10 -8 -16 4 -26 19 -16 41 1 32 24 -8 20 -21 20 -36 2z"/>
<path d="M1450 685 c-26 -32 13 -81 48 -59 34 22 22 74 -18 74 -10 0 -23 -7 -30 -15z"/>
<path d="M293 571 c-48 -30 -51 -39 -20 -62 12 -9 45 -32 74 -53 l52 -37 -5 46 c-4 44 -34 119 -51 128 -5 2 -27 -8 -50 -22z"/>
<path d="M1470 130 c0 -13 7 -20 20 -20 13 0 20 7 20 20 0 13 -7 20 -20 20 -13 0 -20 -7 -20 -20z"/>
</g>
<g id="layer122" fill="#cdeafb" stroke="none">
<path d="M1474 1289 c-8 -14 18 -31 30 -19 9 9 0 30 -14 30 -5 0 -12 -5 -16 -11z"/>
<path d="M197 714 c-9 -10 2 -24 19 -24 8 0 14 7 14 15 0 15 -21 21 -33 9z"/>
<path d="M2760 705 c0 -10 7 -15 18 -13 21 4 19 22 -2 26 -10 2 -16 -3 -16 -13z"/>
<path d="M1454 676 c-10 -26 4 -48 28 -44 17 2 23 10 23 28 0 18 -6 26 -23 28 -13 2 -25 -3 -28 -12z"/>
<path d="M273 558 c-13 -6 -23 -16 -23 -22 0 -9 56 -52 83 -64 12 -6 8 28 -9 64 -18 37 -19 38 -51 22z"/>
<path d="M1474 139 c-10 -17 13 -36 27 -22 12 12 4 33 -11 33 -5 0 -12 -5 -16 -11z"/>
</g>
<g id="layer123" fill="#e8f5fe" stroke="none">
<path d="M1464 669 c-8 -14 11 -33 25 -25 6 4 11 14 11 22 0 16 -26 19 -36 3z"/>
</g>


</svg>