<svg id="white" xmlns="http://www.w3.org/2000/svg" width="2160" height="1440" viewBox="0 0 2160 1440">
  <metadata><?xpacket begin="﻿" id="W5M0MpCehiHzreSzNTczkc9d"?>
<x:xmpmeta xmlns:x="adobe:ns:meta/" x:xmptk="Adobe XMP Core 5.6-c142 79.160924, 2017/07/13-01:06:39        ">
   <rdf:RDF xmlns:rdf="http://www.w3.org/1999/02/22-rdf-syntax-ns#">
      <rdf:Description rdf:about=""/>
   </rdf:RDF>
</x:xmpmeta>
                                                                                                    
                                                                                                    
                                                                                                    
                                                                                                    
                                                                                                    
                                                                                                    
                                                                                                    
                                                                                                    
                                                                                                    
                                                                                                    
                                                                                                    
                                                                                                    
                                                                                                    
                                                                                                    
                                                                                                    
                                                                                                    
                                                                                                    
                                                                                                    
                                                                                                    
                                                                                                    
                           
<?xpacket end="w"?></metadata>
<defs>
    <style>
      .cls-1 {
        fill: #fff;
        fill-rule: evenodd;
      }
    </style>
  </defs>
  <path id="terre_white" data-name="terre white" class="cls-1" d="M1280,242h-3c-3.78,6.587-15.97,8.758-17,16h-8v3h-5v3h-5a182.431,182.431,0,0,0-2,28c7.99,4.71,3.43,9.2,19,9,2.71-2.654,10.94-9.32,15-10,3.47,6.413,7.24,14.182,8,23-2.39.842-1.65,0.4-3,2a2.909,2.909,0,0,1-1-1c-3.38-2.783-4.95-7.875-5-14-7.14.2-10,3.506-15,6-1.34,10.117.5,18.911,3,27-10.54-.383-24.41,3.365-27,11-0.88,1.3-.89,2.467-1,5h-3v3a19.408,19.408,0,0,0-10,2v-2c-0.75-1.073-.6-0.946-1-3,3.36-1.318,2.9-1.541,3-6-11.05-3.432-9.33-18.374-18-24-4.65-3.014-7.53-.706-10-6,6.92-.386,10.14-1.033,10-9-2.98-1.073-7.81-1.986-10-4,2.73-2.148,3.54-5.6,4-10a14.134,14.134,0,0,0-4-1c-3.64,5.516-10.78,2.622-13,10h-1v-5a30.4,30.4,0,0,0-7,1c-0.59,6.764,1.5,9.321,3,15-0.88,1.3-.89,2.467-1,5-4.51,3.4-8.21,6.278-14,9v3a21.675,21.675,0,0,0-7,2,18.293,18.293,0,0,0-1,6c-0.75,1.073-.6.945-1,3a17.724,17.724,0,0,1,4,2c-1.83,1.568-1.4.882-2,4-2.08.372-1.92,0.242-3,1-0.96,1.417-.98,3.273-1,6,2.95,1.246,4.4,2.356,8,3,4.28-3.282,11.97-3.431,16-7,3.8-3.984,3.38-16.135,8-19v-1h1v5h5c0-3.769.38-6.874,2-9-0.04,5.933,1.2,7.685,2,12-1.37.352-6.57-1.069-8,0-2.17,1.626.32,6.318-1,9-1.71,3.472-3.64-1.035-4,7l6,2c-3.9,3.617-7.92,4.313-9,11a25.074,25.074,0,0,0,8,1l34-9v1c-6.85,7.238-3.57,9.454-19,9-1.07.752-.95,0.6-3,1v5h-13c-1.3,2.418-1.8,2.833-2,7,1.49,1.552.78,1.838,3,3,2.78,2.206,7.76,3.464,12,4,0.78,5.181,3.82,6,5,10,1.49,5.048.82,11.046,2,15-0.67.333-1.33,0.667-2,1-5.08,3.82-36.73.967-46,3-0.92,2.667-1.05,6.931-1,11,3.69,6.079-1.83,14.386-3,19-0.65,2.564,2.97,20.328,4,22,2.81,1.7,10.21.253,13,2a24.66,24.66,0,0,1,4,6c-5.94,4.433-8.46,13.041-13,19-2.91,3.825-7.91,4.942-10,10q-1.005,9-2,18c-3.49,6.944-12.01,9.331-18,14-6.71,5.233-23.7,38.524-24,50,14.18,5.465-.19,45.709,2,54,2.2,8.323,7.14,5.521,10,10,0.36,0.7-.57,4.16,1,6,1.01,1.184,3.77.953,5,2,2.39,2.03,6.79,9.251,8,12v6c1.07,1.68,27.15,20.682,30,21,4.82,2.936,12.59-1.864,17-3,6.12-1.578,12.63,1.807,16,2,8.5,0.487,23.13-10.251,35-11,2.85,3.783,8.79,3.727,11,8,1.05,1.521,1.59,4.915,2,7a28.894,28.894,0,0,0,9,1c1.66-1.69,5.09-1.354,9-2,6.17,7.586,5.36,8.128,5,22a26.7,26.7,0,0,0-5,13c4.34,2.766,4.23,8.617,7,13,0.81,1.274,10.85,13.074,12,14l4,1v10c6.55,5.636-.64,6.273,2,15,0.24,0.795,2.79,3.206,3,4,2.56,9.629-13.33,25.047-9,42l12,29c2.84,7.65,3.56,21.125,11,24,7-8.758,20.78-18.081,30-25,5.08-3.814,7.07-9.713,14-12v1c-4.22,4.081-7.42,9.261-11,14-14.83,19.638-39.76,39.457-32,34-23.28,16.369-45.77,34.9-71,49-17.88,9.991-38.98,16.869-57,26-4.87,2.466-9.85,2.093-15,4-17.72,6.567-38.24,10.784-58,16l-19,2c-13.61,3.194-33.36,2-50,2-37.9.009-71.665-.815-100-9-19.21-5.549-36.535-7.78-54-15C683.089,893.012,634.243,742.654,617,687c-4.293-13.855-4.31-26.206-8-41-3.78-15.153-9.95-57.987-6-75V548c3.021-13.141,2.843-28.763,6-41,1.136-4.4-.039-7.951,2-11,3.511,5.517,8.822,9.971,11,17,2.418,7.8,3.271,16.31,5,23v8l6,4q0.5,3.5,1,7c2.4,6.167,7.553,9.345,9,17h6c0.031-5.379-1.006-7.275-2-11h-3c-0.263-11.631-5.178-14.524-8-22q-1.5-7.5-3-15h2c1.132,7.808,7.266,14.354,10,21,3.08,7.487,2.841,13.008,7,19l3,1c4.731,6.5,2.842,15.645,6,24,4.592,12.15,19.857,24.644,33,28,5.8,1.482,8.436-1.452,13-2,1.462,4.366,4.724,3.975,7,7,4.61,6.129,8.453,16.01,20,12,1.954,15.3,22.489,33.518,36,38,2.988-1.1,4.709-6.158,6-9,0.8,1.021.354,0.274,1,2,3.577,3.033,8.668,22.249,10,28-9.473,7.449-14.4,24.508-11,39,3.245,0.828,1.528-.49,3,2-3.233,2.781-4.172,10.841-2,16,2.826,6.715,10.961,12.144,15,18,2.651,3.844,2.612,8.112,5,12,3.711,6.044,13.036,22,18,26,10.22,8.245,24.882,10.673,30,24,4.778,12.442,3.431,25.656,7,39,3.39,12.676,9.751,25.856,12,38,0.867,4.683-3.415,4.435-2,10s6.109,8.17,9,12c1.389,1.841.767,6.191,2,8,1.341,1.231,3.582,1.825,5,3-2,3.358.6,5.987,1,11,2.054,0.383,4.608.949,6,2-0.878,1.295-.895,2.467-1,5h4v4c3.222-.09,6.328-0.406,7,0,2.583,3.3,1.844,5.917,7,7,1.073-.752.945-0.6,3-1v4c6.113,0.017,20.781,1.7,21,2,0.751,1.073.6,0.946,1,3,7.246,0.233,14.54,2.239,19-1,0.751-1.073.6-.946,1-3-6.6-3.126-18.583-3.732-22-10,1.295-1.92,1.716-6.25,2-9-2.932-1.616-6.726-3.623-9-6h3c-0.159-7.869.41-4.947,2-10,0.328-1.042-2.11-1.94-1-4h2c1.8-2.534.486-5.237,0-8,5.632,0.214,11.866.342,15-2,1.142-1.69,1.066-4.9,1-8a18.407,18.407,0,0,1-4-6c6.8,2.743,15.084.615,17-5,2.68-3.36,3.069-8.912,3-15h5v-2c4.978-6.719.211-18.6,2-22,0.766-1.455,2.6-.079,4-1,3.382-2.227,7.8-7.967,12-9,2.02-.5,10.179.512,13,0,1.491-6.228,5.337-11.438,7-19q-0.5-16.5-1-33c3.48-8.9,27-25.115,16-41-4.19-14.683-34.113-26.129-55-26-2.527-8.5-9.018-11.472-21-11v1h-1c-0.143-3.764.471-3.515-2-5-2.674-1.782-5.722-.491-9,0v-1c6.33-5.778-1.615-15.379-4-19-10.775-16.355-8.025-14.724-30-20-4.4-1.057-5.605-3.574-11-4q-0.5-4-1-8c-2.67-.979-1.718-1.282-5-2-2.2-1.628-5.178-1.917-9-2-0.089-3.625-2.6-8.233-2-10,0.2-.575,1.687.2,2-5h-5a31.094,31.094,0,0,1-3,5v-1c-2.809-2.679-2.244-3.744-8-4-2.348,3.037-5.367,3.165-11,3-3.611-3.571-27.15-17.979-33-15-2.9,1.476-4.833,6.217-7,8-3.353,2.758-6.086-.663-8,4-2.17,2.858-2.677,8.417-4,12-5.7-3.9-6.47-7.075-17-7-1.808,2.105-2.919,2-7,2-7.746-13.02-7.09-18.012-7-39h-3c-0.372-2.076-.242-1.925-1-3-3.839-2.5-15.225-1.132-21-1,1.4-13.344,7.579-21.381,8-36-2.806-1.513-4.964-2.044-10-2-1.021.8-.274,0.355-2,1l-12,20h-6c-3.277-1.965-7.013-.546-9-4-8.862-10.867-5.147-45.955-3-59h4c2.894-4.812,5.99-7.1,14-7,2.455,2.925,7.975,3.761,13,4a21.509,21.509,0,0,0,1-7c-0.8-1.021-.355-0.274-1-2h2s7.309-.5,9,0c5.961,1.767,0,4.815,10,4,2.712,11.622,9.81,19.708,12,31h5a18.007,18.007,0,0,1,3-4c-0.028-10.509-2.182-17.512-4-26q1-9.5,2-19c5.742-2.379,6.6-8.547,11-12,1.268-1,2.983.163,4-1q0.5-2,1-4c1.476-1.219,3.877.571,5-1v-4c2.249-3.1,3.628-.746,4-7-5.074-7.42,1.119-12.24,2-19h4c2.728-9.543,11.086-19.841,23-20-0.344-6.648-1.152-6.2-1-13,3.316-1.73,4.944-6.427,8-8h5c3.1-1.719,4.843-4.916,9-6v1c-2.509,1.916-3.465,4.025-4,8a18.319,18.319,0,0,0,6,1c5.792-5.422,23.308-7.866,25-14h4c0.961-1.766,1.257-1.681,2-4,1.707-3-.644-5.981-1-11a30.43,30.43,0,0,0-7,1c-0.383,2.054-.949,4.608-2,6v-3h-8v-3h-5v-1c0.692-1.083.037-4.5,1-6,0.492-.766,3.512-0.947,4-2,1.253-2.7-1.937-5.542-1-7h2c2.522,2.023,6.209,2.1,11,2a14.168,14.168,0,0,0,1-4c-2.375-1.3-5.352-2.88-7-5,11.269,0.169,18.459-3.639,27-6v1c-3.751,4.453-3.023,11.584-10,13,0.118,5.375.135,2.66,2,5,1.137,1.426-2.926,1.046-1,3,1.456,2.5.585,2.156,4,3,1.837,1.238,5.7,1.089,9,1v5c3.724-.147,6.929-2.745,9-2,2.5,0.9,3.686,2.833,9,3,0.9-2.424,1.069-1.59,2-4,4.17-5.92-2.136-20.719-9-21-1.073.752-.946,0.6-3,1v-5c-2.076-.372-1.925-0.242-3-1,6.482-4.252,5.105-16.125,5-26h-1v-1c-4.026.133-5.469,0.543-7-2,2.311-2.53,1.656-3.45,1-7-2.776-.215-8.962-0.612-11-2-1.066-1.428-.829-4.471-2-6-1.828-2.387-3.491-.478-5-4,4.943-6.829-5.144-19.437-6-29a30.448,30.448,0,0,0-7,1c-0.86,4.02-3.623,11.309-7,13-2.184,1.483-6.693,1.83-10,2-1.36-3.488-3.194-4.644-4-9,4.724-1.547,5.216-4.594,5-11h-8c-1.774-3.348-3.957-4.023-5-8-10.8.017-13.6-.883-23-1l-7,11c-1.456,4.835,2.84,8.294,0,13-0.585.969-3.44,1.422-4,3-2.184,6.144,1.572,14.412,2,18q-1,3.5-2,7c-4.782,2.781-13.714,6.726-15,13,4.657,5.025.371,15.465-1,21h-4c-0.372,2.076-.243,1.924-1,3-0.56-5.062-1.9-3.793-3-8h4a18.324,18.324,0,0,0,1-6h-1v-1h-3c-0.092-7.627-2.475-12.109-5-17-16.067.273-18.117-9.348-35-10V316c-0.716-1.738-3.1.217-3-3,0.031-1.029,2.656-4.174,3-5,2.146-5.157,2.608-11.9,6-16,1.391-1.681,11.3-6.94,13-9v-4c2.53-2.863,8.644-3.98,14-4v4c4.486,0.021,9.182.961,12,3-0.878,1.3-.895,2.467-1,5h9c2.231-3.335,3.688-3.195,4-9h-8v-1h1c1.4-2.006,1.346-2.066,4-3,2.186,3.7,8.048,2.575,12,2v-2c0.751-1.073.6-.946,1-3-6.177-3.195-9.2-6.68-14-11a14.373,14.373,0,0,0,5-1v-1a6.107,6.107,0,0,1-2-2c7.8-2.786,12.034-4.57,15-12v-5l6-2c3.946-5.124-4.458-5.91,2-8,1.179,0.8,1.681.773,4,1v5h5c2.414-3.116,3.682-2.167,4-8,0,0-3.908-.195-2-1h2c0.63-1.754.193-.972,1-2,1.614,1.825,2.73,2.606,4,5-3.02,1.273-8.934,10.93-9,16a28.9,28.9,0,0,0,9,1c2.562-3.153,4.256-4.779,10-5v2c-3.363,2.153-5.487,4.945-10,6v6a18.324,18.324,0,0,1-6,1c-1.073.752-.946,0.6-3,1v3a62.538,62.538,0,0,0-13,1v6c2.072,1.283,2.3,2.077,5,3,4.608-3.147,11.7-3.571,17-3,4.386,9.452,16.6,16.783,30,17,1.3-2.418,1.8-2.833,2-7h6c2.826-4.75,4.993-5.854,5-14-2.521-1.463-1.828-1.255-2-5h-6v-1h-1a12.689,12.689,0,0,0-1-4c2.282-1.318,2.045-2.6,3-5l3,1a11.312,11.312,0,0,0,7,9c1.295,0.877,2.466.894,5,1q0.5-1.5,1-3c0.752-1.073.6-.946,1-3h4c1.281-3.878,4.353-5.66,8-7v-6h-7v-3h-4v-3l-10-1c-0.4-3.712-.577-2.953-2-5,4.523-.331,4.183.125,5-4-2.009-1.786-3.435-7.045-4-10-1.487,0-8,1-8,1-2.154-1.489.07-2.187-4-3v-4c-7.412.3-6.4-.577-12-2-0.556-4.109-2.238-7.072-5-9-1.945-1.45-5.92-1.571-8-3h1c31.456-24.717,74.877-20.616,97-16v5c2.745,3.97,3.62,25.581,2,29-1.5,3.154-3.56,1.87-4,8,3.567,2,4.1,4.4,5,9-3.939,2.028-7.34,3.446-8,9-0.8,1.252-.339,18.982,1,21,0.588,0.886,4.428,1.111,5,2,1.379,2.145.711,10.2,2,13,2.108,4.585,7.5,8.13,9,13l14,1v3c5.4,0.824,3.017,2.365,5,3,2.8,0.9,4.569-1.652,8-2v-6c5.591-1.532,8.166-4.443,8-12,0.8-1.18.773-1.681,1-4h3v-3c10.56-3.489,5.411-18.088,19-19,4.11-2.586,10.42-.539,15-3,1.75-.944,2.41-4.008,5-5l6-1c5.33-4.194,8.97-12.838,17-14,5.14,3.524,29.17-1.609,32-4,1.43-1.207,2.22-4.02,4-5,5.08-2.8,12.97-.912,14-8,1.67-.333,3.33-0.667,5-1v-2c3.44-4.846,3.03-12.659,1-18h10v-1h1v-4c6.98-.021,10.89-2.833,15-6,2.27-2.577,2.87-6.138,5-9,6.44,4.638,17.21,5.085,25,8,15.94,5.965,31.41,11.874,47,19,24.7,11.29,45.77,30.308,69,43C1280.88,239.091,1280.57,238.832,1280,242Zm-493-3a29.057,29.057,0,0,1-2,8h-1v-3c1.659-2.453.616-5.251,0-8h-5a6.117,6.117,0,0,1-2,2v-2c0.682-.771,1.311-2.232,2-3,4.939-5.289,10.154-6.24,21-6v1C794.1,231.311,795.843,238.371,787,239Zm304,18h12c0.33,1,.67,2,1,3,12.39,5.382,36.83-9.445,39-15,0.75-1.073.6-.946,1-3-5.08-3.162-5.07-7.695-13-8-3.56,2.307-26.12,5.831-28,5-2.92-2.664-3.13-3.8-9-4-1.39,2.291-5.98,4.294-8,6,0.76,2.631,1.2,2.385,2,5-3.1,1.224-2.26.375-3,4a2.909,2.909,0,0,1,1,1c3.28-.117,7.18-0.236,9,1C1091.64,253.121,1091.69,253.133,1091,257Zm2-13h2v1C1093.25,244.369,1094.03,244.807,1093,244Zm219,22h4c6.2,9.136,19.23,15.016,24,25h-3c-2.59,12.1-5.61,14.506-5,30-3.68,1.412-8.09,2.951-10,6-2.73-1.143-4.91-4.67-11-3-6.4,1.755-10.74,5.533-19,6-0.33-1.667-.67-3.334-1-5h-5v3h-3v-5c2.19-.9,1.44-0.863,3-2,2.67,1.782,5.72.491,9,0v4a14.168,14.168,0,0,0,4,1,15.656,15.656,0,0,0,1-5c-2.47-1.3-.68.429-2-2,5.39-1.089,4.45-3.5,11-4,0.6-4.252,1.71-5.006,2-10h-3c0.18-3.854,1.16-7.636,3-10,5.22-4.589,7.31-4.235,7-15C1314.41,277.236,1312.21,272.133,1312,266Zm13,13v2l3,1v-2Zm-147,21h2v1h-1v1C1178.2,300.979,1178.64,301.726,1178,300Zm117,20h2v1C1295.25,320.369,1296.03,320.807,1295,320ZM853,374a25.142,25.142,0,0,1,3,6h-4c-1.628-1.006-6.387-.959-8-2h2C847.9,376.248,850.97,375.652,853,374Zm532,59v5a21.367,21.367,0,0,0-5,2v-3c2.52-1.463,1.83-1.255,2-5-2.42-1.244-3.18-2.38-5-4,0.42-6.74,3.26-12.293,1-19,9.15-.313,14.34-8.266,18-14a29.509,29.509,0,0,0,6,3,19.28,19.28,0,0,0,0,9c3.26,1.749,7.26,2.107,13,2v-1h1v1c4.28,4.844,6.21,13.965,9,20h-2C1416.55,423.18,1393.44,432.111,1385,433Zm-46,25v3a14.322,14.322,0,0,0-5,1,18.293,18.293,0,0,1,1,6c0.67,0.333,1.33.667,2,1,3.04,2.35,6.54,3,12,3a17.01,17.01,0,0,0-1-6c4.85-1.068,5.44-3.79,10-5v-5c-3.81-1.523-8.39-5-9-10a2.909,2.909,0,0,1-1-1,16.965,16.965,0,0,0,6-1,13.834,13.834,0,0,1-1-4l11,1c-0.45,7.6-1.47,11.033-2,18h4c1.83,6.7,6.93,9.7,8,17,2.74-.191,4.42.131,6-1v-2s21.95-.02,22,0c0.47,0.175,2.28,2.775,3,3,7.63,2.4,13.29-3.1,19-4-0.74,16.666-7.89,30.355-17,39-3.48-.878-4.06-3.163-6-4-4.62-1.993-22.13,4.965-32,2-12.06-3.623-18.62-11.772-34-12-8.39,7.059-6.17,5.169-10,17-14.58-2.736-20.3-10.683-31-16-7.84-3.9-13.46-2.635-20-8,2.2-9.628,2.7-8.264,0-17,1.26-2.95,2.74-2.88,3-8-14.49-.371-35.29-1.716-50,2-15.82,4-28.1,13.03-48,11-0.63-1.754-.19-0.972-1-2v-1c11.44-2.213,33.39-12.043,34-24-1.57-1.889-1.89-2.066-1-4,1.95-10.169,14.43-12.272,20-19,2.6-3.142.04-5.9,4-8,3.11-1.454,10.08,3.041,15,0,3.94-1.42,8.46-5.967,11-9,1.75,0.631.97,0.193,2,1,6.72,2.041,5.32,7.181,9,12,3.98,5.206,10.97,6.757,16,11,2.26,1.909,4.36,5.351,7,7,1.79,1.122,5.94,1.419,7,3v13h-1c-3.42-4.384-8.05-1.969-14-1-2.24,2.9-3.42,1.886-4,7,5.27,2.575,9.63,5.08,17,6,1.14-2.324,1.36-9.437,3-12,1.27,3.239.88,2.632,5,3,1.02-.8.27-0.355,2-1a39.777,39.777,0,0,1,3-14,39.478,39.478,0,0,0,8,1v-6c-3.09-2.1-4.37-5.537-7-8-7.57-7.089-21.92-10.759-26-21-2.76-3.128-2.9-9.979,1-12,1.73,8.883,17.13,19.334,24,24,1.97,1.338,5.57,1.243,7,3C1326.65,435.178,1324.3,456.213,1339,458ZM865,403c-0.329,1.855.726,1.247-2,2v-1C864.754,403.369,863.971,403.807,865,403Zm397,18c-1.59,2.95-2.08,5.721-2,11a18.289,18.289,0,0,0,6,1c0.92-2.667,1.05-6.932,1-11a2.909,2.909,0,0,1-1-1h-4Zm0,13c-2.23,2.228-2.26.276-5,2-3.51,4.447-1.83,11.371,2,14,7.03,5.882,11.61-2.039,11-11C1267.15,436.2,1267.54,434.551,1262,434Zm-37,9c-1.88,2.166-2.22,1.2-3,5l3,1c3.48,2.2,5.78-.365,6-5a2.909,2.909,0,0,1-1-1h-5Zm-9,6a13.816,13.816,0,0,0-1,4,14.168,14.168,0,0,0,4,1,14.168,14.168,0,0,0,1-4,2.826,2.826,0,0,1-1-1h-3Zm201,89c5.32,5.058,21.64,28.1,24,35q0.495,6.5,1,13c1.72,4.355,7.57,6.5,9,11,1.71,5.368-2.07,21.429-3,26-0.8-1.021-.36-0.274-1-2-6.25-5.5-10.75-20.064-13-29V582c-1.33-4.472-5.88-8.238-8-12q-1.005-5-2-10c-2.92-6.857-8.74-12.879-11-21C1415.33,538.8,1415.83,538.807,1417,538ZM776,565c1.35,1.624.639,1.121,3,2v-2h-3Zm-22,13v3h3v-5h2c4.053,4.741,13.152,7.237,19,10-0.007,2.72.039,4.6,1,6,2.811,1.854,10.487,1.128,15,1,1.533-2.464,2.291-2.276,3-6-2.862-1.521-6.205-1.147-10-3-8.72-4.259-11.483-14.014-25-16-6.532,4.015-16.163,2.255-18,11a15.712,15.712,0,0,0,5,1C750.624,578.505,751.023,578.448,754,578Zm45,4c0.372,2.076.242,1.924,1,3C799.628,582.924,799.758,583.075,799,582Zm1,8c-1.122,2.091-1.435,1.832-2,5a12.205,12.205,0,0,1,4,4c-2.9-.06-5.469-0.049-7,1-0.752,1.073-.6.946-1,3h1v1c6,0.719,9.815,3.122,16,4,2.674-5.118,8.616-4.554,13-5a14.193,14.193,0,0,0,1-4C817.177,594.174,813.73,589.961,800,590Zm-386,4c4.961,6.587,6.749,18.26,10,26l20,9v1c-5.973.559-17.775,3.129-21,7-4.162,5.845-2.878,20.285-9,24-0.236-9.345-4.041-16.565-6-25l-23-11C408.777,623.7,410.005,614.467,414,594Zm362,4a18.316,18.316,0,0,0-1,6c2.806,1.513,4.965,2.043,10,2a14.159,14.159,0,0,0,1-4,15.653,15.653,0,0,1-5-4h-5Zm809,86c5.3,7.059,11.73,28.6,14,38,10.21,2.484,17.88,9.153,28,12v2c-4.1.3-28.91,7.291-30,9-6.14,9.629-4.46,27.585-11,37-0.75-11.851-5.88-27.527-10-38-8.07-3.065-26.4-9.514-32-15,5.44-.211,29.27-5.928,31-9C1579.83,712.925,1582.81,693.282,1585,684ZM520,765l14,38c9.515,4.2,18.607,10.178,29,13v1h-1c-5.316,3.74-27.412,5.645-30,10-5.953,10.016-4.4,27.627-11,37l-10-38-33-15h2l30-8Q515,784,520,765Zm916,119c-0.95,9.1-4.92,16.626-7,25h-1q-3-12.5-6-25c-6.14-1.424-17.68-5.9-22-10,3.57-.4,20.9-4.235,22-6,4.31-6.893,1.79-17.5,6-24v1c4.37,4.944,7.38,17.077,9,24,6.53,2.587,11.97,6.1,19,8v2C1448.3,879.479,1443.37,882.872,1436,884Z"/>
  <path id="oeil_white" data-name="oeil white" class="cls-1" d="M587,995L273,736s47.13-76.314,107-150c57.063-70.231,127-138,127-138S641.663,315.307,780,245c135.125-68.674,274-75,274-75s91.48-1.31,201,43c69.26,28.022,135.39,81.664,223,142,185.89,128.024,408,388,408,388L1555,996l115,1,367-248s-217.89-249.764-386-383c-191.82-152.022-337-190-337-190s-149.81-58.61-298-49c-144.771,9.388-288,87-288,87S567.49,300.448,421,425C257.885,563.687,107,742,107,742L479,995.44Z"/>
  <path id="lune_white" data-name="lune white" class="cls-1" d="M1438,463s23.98-15.484,50-17c25.48-1.484,53,11,53,11s15.25,7.453,27,18c12.72,11.418,22,26,22,26s10.48,18.124,14,37c3.48,18.622,0,38,0,38s-1.7,14.638-8,27c-7.15,14.032-19,26-19,26a96.369,96.369,0,0,1-33.91,26.256c-21.3,9.551-34.45,10.637-46.09,11.744,0,0-21.77-2.074-34-5a67.414,67.414,0,0,1-19-8s9.49-45.991,9-92C1452.49,513.571,1438,463,1438,463Z"/>
  <path id="text_white_bottom" data-name="text white bottom" class="cls-1" d="M512.371,1223.59q10.08-16,10.08-48.96,0-24.315-5.12-40t-16.64-24.32a66.79,66.79,0,0,0-26.56-11.84q-15.045-3.2-38.08-3.2h-93.44v234.24h46.72v-74.56h44.48l50.24,74.56h53.76l-56.96-84.8Q502.286,1239.595,512.371,1223.59Zm-123.04-89.6h46.08q20.475,0,30.24,8t9.76,33.28q0,25.275-9.28,33.44t-30.08,8.16h-46.72v-82.88Zm332.48,195.52v-40.32h-108.8v-59.2h85.76v-41.28h-85.76v-52.16h108.8v-41.28H565.971v234.24h155.84Zm210.236-6.4V1210.47h-43.84v80.32a191.841,191.841,0,0,1-34.56,2.88q-33.285,0-45.76-16.64t-12.48-56.64v-17.28q0-40,12.32-55.04t44-15.04q30.075,0,66.88,6.72l7.04-40.64q-26.88-7.365-73.28-7.36a209.675,209.675,0,0,0-36.32,2.72,91.858,91.858,0,0,0-29.12,10.56,62.617,62.617,0,0,0-22.4,21.12q-8.483,13.275-13.44,34.88t-4.96,51.36q0,37.125,6.88,61.44t21.44,36.96a79.474,79.474,0,0,0,32.16,17.28q17.6,4.635,43.84,4.64,48,0,81.6-9.6h0Zm180.473-35.84,15.68,42.24h49.6l-90.88-235.84h-43.2l-90.876,235.84h47.04l15.676-42.24h96.96Zm-82.88-38.08q0.315,0,34.56-92.16l34.24,92.16h-68.8Zm343.2-25.6q10.08-16,10.08-48.96,0-24.315-5.12-40t-16.64-24.32a66.759,66.759,0,0,0-26.56-11.84q-15.045-3.2-38.08-3.2h-93.44v234.24h46.72v-74.56h44.48l50.24,74.56h53.76l-56.96-84.8Q1362.755,1239.595,1372.84,1223.59Zm-123.04-89.6h46.08q20.475,0,30.24,8t9.76,33.28q0,25.275-9.28,33.44t-30.08,8.16H1249.8v-82.88Zm264.32,195.52a251.289,251.289,0,0,0,32-1.76,126.955,126.955,0,0,0,26.08-6.24,55.253,55.253,0,0,0,20.96-12.8,80.768,80.768,0,0,0,14.72-21.12q6.39-12.795,9.28-31.52a332.68,332.68,0,0,0,0-87.36q-2.88-18.72-9.28-31.52a80.768,80.768,0,0,0-14.72-21.12,55.253,55.253,0,0,0-20.96-12.8,126.955,126.955,0,0,0-26.08-6.24,251.289,251.289,0,0,0-32-1.76h-87.68v234.24h87.68Zm-40.64-195.84h40.32q31.035,0,43.84,15.52t12.8,55.52v15.36q0,40.005-12.8,56t-43.84,16h-40.32v-158.4ZM1797,1317.03q21.75-15.045,21.76-53.44a143.291,143.291,0,0,0-1.6-23.04,45.843,45.843,0,0,0-6.08-16.8,52.6,52.6,0,0,0-9.76-11.84q-5.28-4.635-15.68-8.64a178.09,178.09,0,0,0-20.64-6.56q-10.245-2.565-27.52-6.08-28.8-5.76-36.48-10.88t-7.68-21.12q0-14.4,8.16-19.84t28.64-5.44q26.88,0,71.04,6.72l7.36-39.68q-8.325-2.565-33.12-5.28a416.7,416.7,0,0,0-44.96-2.72q-41.925,0-63.36,15.2t-21.44,50.4q0,19.515,3.2,31.2a38.723,38.723,0,0,0,12.96,19.84,71.8,71.8,0,0,0,23.68,12.8q13.92,4.635,39.84,9.76,30.075,6.075,37.6,11.04t7.52,20.64q0,17.925-8.96,23.36t-34.56,5.44q-15.045,0-40.16-3.2t-34.4-5.44l-7.36,39.36q10.23,3.2,33.92,6.24a375.212,375.212,0,0,0,47.68,3.04Q1775.23,1332.07,1797,1317.03Z"/>
</svg>
