<svg height="512pt" viewBox="0 0 512 512.001" width="512pt" xmlns="http://www.w3.org/2000/svg"><path d="m512 256c0 141.386719-114.613281 256-256 256-141.382812 0-256-114.613281-256-256s114.617188-256 256-256c141.386719 0 256 114.613281 256 256zm0 0" fill="#ff9a00"/><path d="m512 256c0-21.121094-2.574219-41.636719-7.398438-61.273438l-110.773437-109.710937c-4.832031-5.273437-11.769531-8.597656-19.441406-8.597656h-40.886719l-20.230469-20.082031h-114.539062v20.082031h-61.113281c-14.515626 0-26.386719 11.875-26.386719 26.386719v304.808593c0 7.796875 3.425781 14.828125 8.847656 19.667969l77.722656 78.070312c18.699219 4.347657 38.179688 6.648438 58.199219 6.648438 141.386719 0 256-114.613281 256-256zm0 0" fill="#e67500"/><path d="m374.386719 434h-236.769531c-14.515626 0-26.386719-11.871094-26.386719-26.386719v-304.808593c0-14.515626 11.871093-26.386719 26.386719-26.386719h236.769531c14.511719 0 26.382812 11.871093 26.382812 26.386719v304.808593c0 14.515625-11.871093 26.386719-26.382812 26.386719zm0 0" fill="#00ceb4"/><path d="m400.769531 102.800781v304.808594c0 14.519531-11.867187 26.390625-26.378906 26.390625h-118.390625v-357.578125h118.390625c14.511719 0 26.378906 11.867187 26.378906 26.378906zm0 0" fill="#00ad95"/><path d="m129.757812 93.503906h252.488282v323.410156h-252.488282zm0 0" fill="#fff"/><g fill="#ffe047"><path d="m195.175781 209.328125-47.550781-41.839844 19.820312-22.523437 25.554688 22.488281 32.289062-34.609375 22.046876 20.34375zm0 0"/><path d="m195.175781 285.8125-47.550781-41.839844 19.820312-22.523437 25.554688 22.488281 32.289062-34.609375 22.046876 20.347656zm0 0"/><path d="m195.175781 362.300781-47.550781-41.84375 19.820312-22.519531 25.554688 22.484375 32.289062-34.609375 22.046876 20.347656zm0 0"/></g><path d="m256 93.5h126.242188v323.410156h-126.242188zm0 0" fill="#fff5cb"/><path d="m129.757812 384.636719h252.488282v32.277343h-252.488282zm0 0" fill="#fff5ca"/><path d="m256 384.632812h126.246094v32.28125h-126.246094zm0 0" fill="#ffe047"/><path d="m198.730469 56.332031h114.539062v60.972657h-114.539062zm0 0" fill="#ff52a1"/><path d="m268.019531 174.238281h90.5v30h-90.5zm0 0" fill="#9331b2"/><path d="m268.019531 239.570312h90.5v30h-90.5zm0 0" fill="#9331b2"/><path d="m268.019531 304.90625h90.5v30h-90.5zm0 0" fill="#9331b2"/><path d="m256 56.328125h57.269531v60.980469h-57.269531zm0 0" fill="#e80c6a"/></svg>