<?xml version="1.0"?>
<svg xmlns="http://www.w3.org/2000/svg" height="512px" viewBox="0 -18 512.00043 512" width="512px"><path d="m241 116h30v165h-30zm0 0" fill="#D80027"/><path d="m256 371c-8.277344 0-15 6.722656-15 15s6.722656 15 15 15 15-6.722656 15-15-6.722656-15-15-15zm0 0" fill="#D80027"/><path d="m502.53125 364.714844-180.890625-326.011719c-13.40625-24.230469-37.941406-38.703125-65.640625-38.703125s-52.234375 14.472656-65.640625 38.714844l-180.890625 325.988281c-12.976562 23.480469-12.597656 51.28125 1.027344 74.398437 13.621094 23.101563 37.777344 36.898438 64.597656 36.898438h361.8125c26.820312 0 50.976562-13.796875 64.597656-36.898438 13.625-23.117187 14.003906-50.917968 1.027344-74.386718zm-246.53125 66.285156c-24.8125 0-45-20.1875-45-45s20.1875-45 45-45 45 20.1875 45 45-20.1875 45-45 45zm45-120h-90v-225h90zm0 0" fill="#D80027"/></svg>
