<?xml version="1.0" encoding="iso-8859-1"?>
<!-- Generator: Adobe Illustrator 19.0.0, SVG Export Plug-In . SVG Version: 6.00 Build 0)  -->
<svg version="1.1" id="Layer_1" xmlns="http://www.w3.org/2000/svg" xmlns:xlink="http://www.w3.org/1999/xlink" x="0px" y="0px"
	 viewBox="0 0 494.849 494.849" style="enable-background:new 0 0 494.849 494.849;" xml:space="preserve">
<g>
	<path style="fill:#FFDA44;" d="M227.424,339.062c0-44.183,35.817-80,80-80v-15c-24.377,0-44.138-19.761-44.138-44.138
		s19.761-44.138,44.138-44.138V0h-160v494.849h160V339.062H227.424z"/>
	<path style="fill:#FFCD00;" d="M307.424,0v155.786c24.377,0,44.138,19.761,44.138,44.138s-19.761,44.138-44.138,44.138v15
		c44.183,0,80,35.817,80,80h-80v155.786h160V0H307.424z"/>
	<polygon style="fill:#2488FF;" points="47.424,0 47.424,113.712 107.424,113.712 107.424,153.712 47.424,153.712 47.424,227.424 
		107.424,227.424 107.424,267.424 47.424,267.424 47.424,341.136 107.424,341.136 107.424,381.136 47.424,381.136 47.424,494.849 
		147.424,494.849 147.424,0 	"/>
	<polygon style="fill:#005ECE;" points="107.424,227.424 47.424,227.424 27.424,227.424 27.424,267.424 47.424,267.424 
		107.424,267.424 	"/>
	<polygon style="fill:#005ECE;" points="107.424,113.712 47.424,113.712 29.924,113.712 29.924,153.712 47.424,153.712 
		107.424,153.712 	"/>
	<polygon style="fill:#005ECE;" points="107.424,341.136 47.424,341.136 27.424,341.136 27.424,381.136 47.424,381.136 
		107.424,381.136 	"/>
	<circle style="fill:#2488FF;" cx="307.424" cy="199.924" r="44.138"/>
	<path style="fill:#2488FF;" d="M227.424,339.062h80h80c0-44.183-35.817-80-80-80S227.424,294.879,227.424,339.062z"/>
</g>
<g>
</g>
<g>
</g>
<g>
</g>
<g>
</g>
<g>
</g>
<g>
</g>
<g>
</g>
<g>
</g>
<g>
</g>
<g>
</g>
<g>
</g>
<g>
</g>
<g>
</g>
<g>
</g>
<g>
</g>
</svg>
