<svg height="511pt" viewBox="0 -17 511.99984 511" width="511pt" xmlns="http://www.w3.org/2000/svg"><path d="m502.578125 365.441406-180.953125-326.226562c-13.503906-24.011719-38.117188-38.714844-65.726562-38.714844-27.609376 0-52.21875 14.707031-65.722657 38.714844l-180.753906 326.226562c-12.902344 23.410156-12.601563 51.320313 1.203125 74.429688 13.503906 23.109375 37.8125 36.914062 64.523438 36.914062h361.703124c26.710938 0 51.019532-13.804687 64.523438-36.914062 13.804688-23.109375 14.105469-51.019532 1.203125-74.429688zm0 0" fill="#fdbf00"/><path d="m501.375 439.871094c-13.503906 23.109375-37.8125 36.914062-64.523438 36.914062h-180.953124v-476.285156c27.609374 0 52.222656 14.707031 65.726562 38.714844l180.953125 326.226562c12.902344 23.410156 12.601563 51.320313-1.203125 74.429688zm0 0" fill="#ff9f00"/><path d="m225.886719 341.734375h60.023437v60.023437h-60.023437zm0 0" fill="#523e6d"/><path d="m255.898438 341.734375h30.011718v60.023437h-30.011718zm0 0" fill="#3e254c"/><path d="m225.886719 131.652344h60.023437v150.058594h-60.023437zm0 0" fill="#523e6d"/><path d="m255.898438 131.652344h30.011718v150.058594h-30.011718zm0 0" fill="#3e254c"/></svg>